<svg id="Layer_2" data-name="Layer 2" xmlns="http://www.w3.org/2000/svg" viewBox="0 0 1043.57 735.783" style="width: 100%; height: 100%;">
  <g id="Layer_1-2" data-name="Layer 1">
    <g>
      <g>
        <g>
          <polygon points="758.475 695.947 757.627 699.029 747.893 734.5 735.948 734.5 745.687 699.029 747.368 692.898 758.475 695.947" fill="#fff" stroke="#b7b7b7" stroke-linecap="round" stroke-linejoin="round" stroke-width="1.5"></polygon>
          <polygon points="909.79 734.5 897.845 734.5 888.111 699.029 887.263 695.947 898.37 692.898 900.051 699.029 909.79 734.5" fill="#fff" stroke="#b7b7b7" stroke-linecap="round" stroke-linejoin="round" stroke-width="1.5"></polygon>
        </g>
        <g>
          <rect x="727.187" y="552.922" width="191.363" height="144.22" transform="translate(1645.738 1250.063) rotate(-180)" fill="#fff" stroke="#b7b7b7" stroke-linecap="round" stroke-linejoin="round" stroke-width="1.5"></rect>
          <rect x="727.187" y="625.032" width="191.363" height="72.11" transform="translate(1645.738 1322.173) rotate(-180)" fill="#fff" stroke="#b7b7b7" stroke-linecap="round" stroke-linejoin="round" stroke-width="1.5"></rect>
          <circle cx="822.869" cy="591.317" r="8.606" fill="#fff" stroke="#b7b7b7" stroke-linecap="round" stroke-linejoin="round" stroke-width="1.5"></circle>
          <circle cx="822.869" cy="661.763" r="8.606" fill="#fff" stroke="#b7b7b7" stroke-linecap="round" stroke-linejoin="round" stroke-width="1.5"></circle>
          <g>
            <rect x="782.712" y="516.361" width="15.01" height="57.671" transform="translate(245.021 1335.414) rotate(-90)" fill="#fff" stroke="#b7b7b7" stroke-linecap="round" stroke-linejoin="round" stroke-width="1.5"></rect>
            <rect x="794.624" y="504.471" width="8.769" height="57.671" transform="translate(265.702 1332.315) rotate(-90)" fill="#fff" stroke="#b7b7b7" stroke-linecap="round" stroke-linejoin="round" stroke-width="1.5"></rect>
            <rect x="794.931" y="485.801" width="8.769" height="57.671" transform="translate(599.665 1444.096) rotate(-110.652)" fill="#fff" stroke="#b7b7b7" stroke-linecap="round" stroke-linejoin="round" stroke-width="1.5"></rect>
          </g>
          <path d="m863.391,482.283h0c0-1.248-1.011-2.259-2.259-2.259h-14.227c-1.319,0-2.388,1.069-2.388,2.388h0c0,6.894-3.303,13.297-8.732,17.545-7.173,5.612-11.683,14.47-11.315,24.367.567,15.219,12.866,27.639,28.078,28.345,16.934.786,30.91-12.711,30.91-29.472,0-9.42-4.417-17.805-11.291-23.205-5.465-4.293-8.777-10.759-8.777-17.709Z" fill="#fff" stroke="#b7b7b7" stroke-linecap="round" stroke-linejoin="round" stroke-width="1.5"></path>
        </g>
      </g>
      <g>
        <g>
          <g>
            <rect x="219.962" y="432.145" width="577.688" height="16.278" fill="#1b82fb" stroke="#1b82fb" stroke-linecap="round" stroke-linejoin="round" stroke-width="1.5"></rect>
            <rect x="219.962" y=".75" width="577.688" height="439.673" fill="#fff" stroke="#1b82fb" stroke-linecap="round" stroke-linejoin="round" stroke-width="1.5"></rect>
            <rect x="219.962" y=".75" width="577.688" height="38.739" fill="#fff" stroke="#1b82fb" stroke-linecap="round" stroke-linejoin="round" stroke-width="1.5"></rect>
          </g>
          <circle cx="773.992" cy="20.12" r="9.978" fill="#fff" stroke="#1b82fb" stroke-linecap="round" stroke-linejoin="round" stroke-width="1.5"></circle>
        </g>
        <g>
          <line x1="332.482" y1="238.222" x2="332.482" y2="232.222" fill="none" stroke="#1b82fb" stroke-linecap="round" stroke-linejoin="round" stroke-width="1.5"></line>
          <line x1="332.482" y1="220.342" x2="332.482" y2="83.732" fill="none" stroke="#1b82fb" stroke-dasharray="0 0 11.879 11.879" stroke-linecap="round" stroke-linejoin="round" stroke-width="1.5"></line>
          <polyline points="332.482 77.792 332.482 71.792 338.482 71.792" fill="none" stroke="#1b82fb" stroke-linecap="round" stroke-linejoin="round" stroke-width="1.5"></polyline>
          <line x1="350.215" y1="71.792" x2="508.602" y2="71.792" fill="none" stroke="#1b82fb" stroke-dasharray="0 0 11.732 11.732" stroke-linecap="round" stroke-linejoin="round" stroke-width="1.5"></line>
          <line x1="514.469" y1="71.792" x2="520.469" y2="71.792" fill="none" stroke="#1b82fb" stroke-linecap="round" stroke-linejoin="round" stroke-width="1.5"></line>
        </g>
        <g>
          <line x1="705.306" y1="108.021" x2="711.306" y2="108.021" fill="none" stroke="#1b82fb" stroke-linecap="round" stroke-linejoin="round" stroke-width="1.5"></line>
          <line x1="718.661" y1="108.021" x2="729.694" y2="108.021" fill="none" stroke="#1b82fb" stroke-dasharray="0 0 7.355 7.355" stroke-linecap="round" stroke-linejoin="round" stroke-width="1.5"></line>
          <polyline points="733.372 108.021 739.372 108.021 739.372 114.021" fill="none" stroke="#1b82fb" stroke-linecap="round" stroke-linejoin="round" stroke-width="1.5"></polyline>
          <line x1="739.372" y1="124.378" x2="739.372" y2="181.34" fill="none" stroke="#1b82fb" stroke-dasharray="0 0 10.357 10.357" stroke-linecap="round" stroke-linejoin="round" stroke-width="1.5"></line>
          <line x1="739.372" y1="186.518" x2="739.372" y2="192.518" fill="none" stroke="#1b82fb" stroke-linecap="round" stroke-linejoin="round" stroke-width="1.5"></line>
        </g>
        <g>
          <rect id="a_9_a" x="256.801" y="159.949" width="181.957" height="222.595" fill="#fff" stroke="#1b82fb" stroke-linecap="round" stroke-linejoin="round" stroke-width="1.5"></rect>
          <g>
            <line id="a_9_a-2" data-name="a_9_a" x1="278.975" y1="309.824" x2="416.584" y2="309.824" fill="#fff" stroke="#1b82fb" stroke-linecap="round" stroke-linejoin="round" stroke-width="1.5"></line>
            <line id="a_9_a-3" data-name="a_9_a" x1="278.975" y1="332.102" x2="416.584" y2="332.102" fill="#fff" stroke="#1b82fb" stroke-linecap="round" stroke-linejoin="round" stroke-width="1.5"></line>
            <line id="a_9_a-4" data-name="a_9_a" x1="278.975" y1="354.38" x2="386.498" y2="354.38" fill="#fff" stroke="#1b82fb" stroke-linecap="round" stroke-linejoin="round" stroke-width="1.5"></line>
          </g>
          <g>
            <g id="a_9_gr">
              <circle id="a_9_gr_a" cx="332.485" cy="237.079" r="52.153" fill="#fff" stroke="#000" stroke-linecap="round" stroke-linejoin="round" stroke-width="1.5"></circle>
              <path id="a_9_gr_a-2" data-name="a_9_gr_a" d="m377.161,210.161l-44.679,26.914v-52.151c18.96,0,35.547,10.112,44.679,25.237Z" fill="#1b82fb" stroke="#000" stroke-linecap="round" stroke-linejoin="round" stroke-width="1.5"></path>
              <path id="a_9_gr_bl" d="m384.634,237.076c0,2.012-.112,4.007-.344,5.959l-51.807-5.959,44.679-26.914c4.747,7.859,7.472,17.068,7.472,26.914Z" stroke="#000" stroke-linecap="round" stroke-linejoin="round" stroke-width="1.5"></path>
            </g>
            <g>
              <rect id="a_9_bl" x="397.489" y="189.647" width="17.739" height="10.845" stroke="#000" stroke-linecap="round" stroke-linejoin="round" stroke-width="1.5"></rect>
              <rect id="a_9_a-5" data-name="a_9_a" x="397.489" y="216.153" width="17.739" height="10.845" fill="#fff" stroke="#000" stroke-linecap="round" stroke-linejoin="round" stroke-width="1.5"></rect>
              <rect id="a_9_a-6" data-name="a_9_a" x="397.489" y="242.658" width="17.739" height="10.845" fill="#1b82fb" stroke="#000" stroke-linecap="round" stroke-linejoin="round" stroke-width="1.5"></rect>
            </g>
          </g>
        </g>
        <g>
          <rect x="502.024" y="22.693" width="203.081" height="113.638" fill="#fff" stroke="#1b82fb" stroke-linecap="round" stroke-linejoin="round" stroke-width="1.5"></rect>
          <g>
            <rect x="520.469" y="66.26" width="14.406" height="49.311" fill="#1b82fb" stroke="#000" stroke-linecap="round" stroke-linejoin="round" stroke-width="1.5"></rect>
            <rect x="641.896" y="54.857" width="14.406" height="60.715" fill="#1b82fb" stroke="#000" stroke-linecap="round" stroke-linejoin="round" stroke-width="1.5"></rect>
            <rect x="611.54" y="77.664" width="14.406" height="37.908" fill="#1b82fb" stroke="#000" stroke-linecap="round" stroke-linejoin="round" stroke-width="1.5"></rect>
            <rect x="550.826" y="43.453" width="14.406" height="72.118" fill="#1b82fb" stroke="#000" stroke-linecap="round" stroke-linejoin="round" stroke-width="1.5"></rect>
            <rect x="581.183" y="89.067" width="14.406" height="26.504" fill="#1b82fb" stroke="#000" stroke-linecap="round" stroke-linejoin="round" stroke-width="1.5"></rect>
            <rect x="672.253" y="100.47" width="14.406" height="15.101" fill="#1b82fb" stroke="#000" stroke-linecap="round" stroke-linejoin="round" stroke-width="1.5"></rect>
          </g>
        </g>
        <g>
          <rect x="473.901" y="192.518" width="301.735" height="219.891" fill="#fff" stroke="#1b82fb" stroke-linecap="round" stroke-linejoin="round" stroke-width="1.5"></rect>
          <g>
            <g>
              <line x1="570.475" y1="381.099" x2="570.475" y2="223.829" fill="#fff" stroke="#1b82fb" stroke-linecap="round" stroke-linejoin="round" stroke-width="1.5"></line>
              <line x1="679.062" y1="381.099" x2="679.062" y2="223.829" fill="#fff" stroke="#1b82fb" stroke-linecap="round" stroke-linejoin="round" stroke-width="1.5"></line>
              <line x1="624.768" y1="381.099" x2="624.768" y2="223.829" fill="#fff" stroke="#1b82fb" stroke-linecap="round" stroke-linejoin="round" stroke-width="1.5"></line>
            </g>
            <polyline points="516.181 348.428 570.475 304.236 624.768 305.942 679.062 271.246 733.355 261.855" fill="none" stroke="#000" stroke-linecap="round" stroke-linejoin="round" stroke-width="1.5"></polyline>
            <polyline points="516.181 223.829 516.181 381.099 733.355 381.099 733.355 223.829" fill="none" stroke="#1b82fb" stroke-linecap="round" stroke-linejoin="round" stroke-width="1.5"></polyline>
            <polyline points="516.181 368.29 570.475 342.725 624.768 355.768 679.062 328.565 733.355 336.203" fill="none" stroke="#000" stroke-linecap="round" stroke-linejoin="round" stroke-width="1.5"></polyline>
            <circle cx="570.777" cy="304.507" r="5.087" fill="#1b82fb" stroke="#000" stroke-linecap="round" stroke-linejoin="round" stroke-width="1.5"></circle>
            <circle cx="624.768" cy="305.141" r="5.087" fill="#1b82fb" stroke="#000" stroke-linecap="round" stroke-linejoin="round" stroke-width="1.5"></circle>
            <circle cx="679.062" cy="271.246" r="5.087" fill="#1b82fb" stroke="#000" stroke-linecap="round" stroke-linejoin="round" stroke-width="1.5"></circle>
            <circle cx="570.777" cy="343.341" r="5.087" stroke="#000" stroke-linecap="round" stroke-linejoin="round" stroke-width="1.5"></circle>
            <circle cx="624.768" cy="355.053" r="5.087" stroke="#000" stroke-linecap="round" stroke-linejoin="round" stroke-width="1.5"></circle>
            <circle cx="679.062" cy="328.565" r="5.087" stroke="#000" stroke-linecap="round" stroke-linejoin="round" stroke-width="1.5"></circle>
          </g>
        </g>
      </g>
      <line x1="1.489" y1="735.033" x2="1042.82" y2="735.033" fill="none" stroke="#000" stroke-linecap="round" stroke-linejoin="round" stroke-width="1.5"></line>
      <g>
        <g>
          <path d="m212.154,555.266c-3.537,0-6.606-2.438-7.406-5.883l-36.371-146.596c-.8-3.445-3.87-5.883-7.406-5.883H19.069c-4.89,0-8.508,4.549-7.409,9.313l38.853,158.362c.796,3.45,3.868,5.894,7.409,5.894" fill="#fff" stroke="#000" stroke-linecap="round" stroke-linejoin="round" stroke-width="1.5"></path>
          <path d="m57.525,555.266h210.469c4.199,0,7.603,3.404,7.603,7.603,0,4.199-3.404,7.603-7.603,7.603h-.397s-209.676,0-209.676,0h-.396c-4.199,0-7.604-3.404-7.604-7.603,0-4.199,3.404-7.603,7.604-7.603Z" fill="#fff" stroke="#000" stroke-linecap="round" stroke-linejoin="round" stroke-width="1.5"></path>
          <path d="m117.525,555.266h150.469c4.199,0,7.603,3.404,7.603,7.603,0,4.199-3.404,7.603-7.603,7.603h-.397s-149.676,0-149.676,0h-.396c-4.199,0-7.604-3.404-7.604-7.603,0-4.199,3.404-7.603,7.604-7.603Z" fill="#fff" stroke="#000" stroke-linecap="round" stroke-linejoin="round" stroke-width="1.5"></path>
          <line x1="61.61" y1="570.473" x2="33.791" y2="734.852" fill="#fff" stroke="#000" stroke-linecap="round" stroke-linejoin="round" stroke-width="1.5"></line>
          <line x1="111.61" y1="570.473" x2="83.791" y2="734.852" fill="#fff" stroke="#000" stroke-linecap="round" stroke-linejoin="round" stroke-width="1.5"></line>
          <g>
            <polygon id="sk" points="311.454 651.78 319.671 709.172 284.758 709.172 271.197 653.482 311.454 651.78" fill="#fffdfd" stroke="#000" stroke-linecap="round" stroke-linejoin="round" stroke-width="1.5"></polygon>
            <path id="b" d="m284.122,734.647h12.98c1.259-2.91,2.582-6.431,2.582-6.431l5.145,6.431h52.813s6.512-17.017-14.356-17.936c-22.055-.971-24.983-25.164-24.983-25.164h-15.828s-4.856,10.228-4.856,10.228l-5.473-10.228h-12.855s4.83,43.1,4.83,43.1Z"></path>
            <polygon id="sk-2" data-name="sk" points="242.707 651.78 241.924 709.172 207.011 709.172 202.45 653.482 242.707 651.78" fill="#fffdfd" stroke="#000" stroke-linecap="round" stroke-linejoin="round" stroke-width="1.5"></polygon>
            <path id="b-2" data-name="b" d="m204.375,734.647h12.98c1.259-2.91,2.582-6.431,2.582-6.431l5.145,6.431h52.813s6.512-17.017-14.356-17.936c-22.055-.971-19.983-25.164-19.983-25.164h-15.828s-4.856,10.228-4.856,10.228l-5.473-10.228h-12.855s-.17,43.1-.17,43.1Z"></path>
            <path id="b-3" data-name="b" d="m264.442,686.107l-51.788-131.149h-71.232c-22.171,0-34.361-8.766-33.653-38.573.526-22.155,3.428-31.535,3.428-31.535l123.576-.174c.531,0,1.06.011,1.586.032,17.032.696,28.212,13.626,34.383,30.215l60.038,157.923-66.338,13.262Z" fill="#1b82fb" stroke="#000" stroke-linecap="round" stroke-linejoin="round" stroke-width="1.5"></path>
            <path id="b-4" data-name="b" d="m189.028,684.034l-4.577-129.077h-80.232c-22.171,0-45.413-18.789-44.044-48.573.654-14.226,3.428-21.535,3.428-21.535l144.966-.174c.531,0,5.06.011,5.586.032,9.58.391,18.243,4.606,24.562,11.198,6.168,6.434,9.603,15.012,10.088,23.912l9.099,163.099-68.877,1.117Z" fill="#1b82fb" stroke="#000" stroke-linecap="round" stroke-linejoin="round" stroke-width="1.5"></path>
          </g>
          <path d="m67.992,282.841c.948-21.588,11.025-38.763,31.765-43.114,20.741-4.351,41.151,9.267,45.587,30.416,0,0,3.738,21.421,3.502,39.445-.236,18.024,6.856,18.97,6.856,18.97l-89.602,4.484s3.903-10.599,2.721-26.382q-1.182-15.783-.829-23.818Z"></path>
          <path id="h" d="m89.539,304.187c-4.403.844-8.662-2.107-9.514-6.592-.815-4.292,1.791-8.425,5.876-9.514.284-15.059,9.912-28.339,25.028-31.238,11.366-2.18,16.678,3.162,23.955,11.3,3.851,4.306,9,33.186,6.46,40.14-1.699,4.65-5.697,8.365-12.817,11.11l3.12,16.797s4.322,15.945-13.402,18.745c-17.978,2.84-21.052-12.832-21.052-12.832,0,0-6.911-35.822-7.504-37.954-.051.011-.099.027-.151.037Z" fill="#fffdfd" stroke="#000" stroke-linecap="round" stroke-linejoin="round" stroke-width="1.5"></path>
          <path id="sh" d="m112.947,319.464l18.087,13.578-2.505-13.649s-4.689,1.425-9.357,1.073c-4.668-.352-6.225-1.002-6.225-1.002Z" stroke="#000" stroke-linecap="round" stroke-linejoin="round" stroke-width="1.5"></path>
          <path d="m120.246,263.125s-3.773,15.553-35.505,25.897l-4.06-28.568,51.717-10.5,8.478,23.087s-15.423.305-20.63-9.916Z"></path>
          <g id="eye">
            <path d="m114.719,285.93l-.015-.141c.008-.207-.035-.399-.129-.578-.06-.186-.164-.347-.31-.483-.136-.146-.297-.25-.483-.31-.179-.094-.371-.137-.578-.129l-.399.054c-.254.071-.475.2-.662.386l-.235.304c-.136.234-.204.486-.205.757l.015.141c-.008.207.035.399.129.578.06.186.164.347.31.483.136.146.297.25.483.31.179.094.371.137.578.129l.399-.054c.254-.071.475-.2.662-.386l.235-.304c.136-.234.204-.486.205-.757h0Z"></path>
          </g>
          <g id="eye-2" data-name="eye">
            <path d="m131.481,283.579l-.015-.141c.008-.207-.035-.399-.129-.578-.06-.186-.164-.347-.31-.483-.136-.146-.297-.25-.483-.31-.179-.094-.371-.137-.578-.129l-.399.054c-.254.071-.475.2-.662.386l-.235.304c-.136.234-.204.486-.205.757l.015.141c-.008.207.035.399.129.578.06.186.164.347.31.483.136.146.297.25.483.31.179.094.371.137.578.129l.399-.054c.254-.071.475-.2.662-.386l.235-.304c.136-.234.204-.486.205-.757h0Z"></path>
          </g>
          <path id="st" d="m126.415,290.821l1.639,3.737c.303.69-.189,1.468-.939,1.486l-3.565.084" fill="none" stroke="#000" stroke-linecap="round" stroke-linejoin="round" stroke-width="1.5"></path>
          <path id="st-2" data-name="st" d="m115.084,278.723s-5.298-.714-7.155,3.102" fill="none" stroke="#000" stroke-linecap="round" stroke-linejoin="round" stroke-width="1.5"></path>
          <path id="st-3" data-name="st" d="m113.762,301.972s2.599,5.071,9.171,2.766" fill="none" stroke="#000" stroke-linecap="round" stroke-linejoin="round" stroke-width="1.5"></path>
          <path id="st-4" data-name="st" d="m134.672,278.193s-4.201-2.751-7.73-.415" fill="none" stroke="#000" stroke-linecap="round" stroke-linejoin="round" stroke-width="1.5"></path>
          <path id="b-5" data-name="b" d="m61.663,471.832c.79,8,1.29,13.02,1.29,13.02l118.2-.18s-.27-5.93-.66-14.63c6.33,6.76,11.19,14.63,27.19,13.47,11.91-.86,18.56-9.15,23.48-16.9l43.7-58.35-3.18-2.24-6.44-4.52-7.81-5.49-14.39-10.11-20.25,22.88-13.66,15.43-30.69-68.97c-1.89-3.85-4.63-7.01-7.88-9.36-4.78-4.07-11.68-7.09-22-7.03l-16.48.29c.29,4.75-14.577,9.855-14.577,9.855,0,0-20.474-7.755-20.733-9.225l-21.16.37s-.58.02-.93.08c-12.39,1.53-20.67,9.39-25.12,17.33-2.46,4.38-3.7,9.33-3.81,14.35l-1.49,71.65-.12.82c-.99,12.58,5.99,24.01,17.52,27.46Z"></path>
          <polygon id="b-6" data-name="b" points="94.082 332.882 89.469 340.084 107.478 362.357 117.506 348.997 94.082 332.882" fill="#fdfdff" stroke="#000" stroke-linecap="round" stroke-linejoin="round" stroke-width="1.5"></polygon>
          <polygon id="b-7" data-name="b" points="117.506 348.997 129.117 360.361 137.303 339.063 132.085 332.699 117.506 348.997" fill="#fdfdff" stroke="#000" stroke-linecap="round" stroke-linejoin="round" stroke-width="1.5"></polygon>
          <g id="ha">
            <path id="sk-3" data-name="sk" d="m158.553,365.416s5.702-4.377,7.763-8.65c2.061-4.273,5.577-1.119,4.654,2.396-.923,3.515-3.481,5.759-3.481,5.759" fill="#fffdfd" stroke="#000" stroke-linecap="round" stroke-linejoin="round" stroke-width="1.5"></path>
            <polygon id="b-8" data-name="b" points="196.315 375.333 156.547 351.88 160.075 345.742 199.843 369.195 196.315 375.333" fill="#fff" stroke="#000" stroke-linecap="round" stroke-linejoin="round" stroke-width="1.5"></polygon>
            <line id="st-5" data-name="st" x1="164.772" y1="348.754" x2="161.379" y2="354.657" fill="#fdfdfd" stroke="#000" stroke-linecap="round" stroke-linejoin="round" stroke-width="1.5"></line>
            <polygon id="ob" points="196.315 375.333 204.435 375.917 199.843 369.195 196.315 375.333" fill="#fff" stroke="#000" stroke-linecap="round" stroke-linejoin="round" stroke-width="1.5"></polygon>
            <polygon id="bl" points="200.676 375.102 202.139 372.556 204.193 375.778 200.676 375.102"></polygon>
            <path id="sk-4" data-name="sk" d="m166.755,361.379c5.1-1.86,9.452-2.662,13.558-3.214,8.192-1.101,13.734,2.833,16.216,4.294,1.078.635.734,3.215-1.193,3.425-2.534.276-5.468-2.414-7.532-2.108-2.343.348-4.029.705-5.848,1.272,3.901,1.878,5.292,4.724,4.567,7.153,1.782,2.024,2.148,4.385,1.647,5.596-.076.184-.248.335-.49.459.918,2.229.47,4.358-.757,4.48-2.402.239-2.559-3.997-6.691-2.668-1.049.337-7.131,5.603-7.131,5.603-2.028,1.801-17.73,16.021-17.73,16.021l-15.193-25.775c10.8-6.479,22.353-12.998,26.577-14.538Z" fill="#fffdfd" stroke="#000" stroke-linecap="round" stroke-linejoin="round" stroke-width="1.5"></path>
            <path id="st-6" data-name="st" d="m168.386,365.942s6.336-3.344,11.335-1.773c.821.258,1.566.552,2.237.875" fill="none" stroke="#000" stroke-linecap="round" stroke-linejoin="round" stroke-width="1.5"></path>
            <path id="st-7" data-name="st" d="m170.85,370.801s6.764-3.33,12.105-1.099c1.553.649,2.723,1.534,3.572,2.497" fill="none" stroke="#000" stroke-linecap="round" stroke-linejoin="round" stroke-width="1.5"></path>
            <path id="st-8" data-name="st" d="m187.685,378.255c-.528-1.282-1.51-2.597-3.06-3.583-4.245-2.703-11.638,1.742-11.638,1.742" fill="none" stroke="#000" stroke-linecap="round" stroke-linejoin="round" stroke-width="1.5"></path>
          </g>
          <path id="b-9" data-name="b" d="m70.572,419.902l71.344-52.201,22.287,34.066s-82.101,64.401-84.159,65.622c-6.696,3.971-14.519,5.358-18.381,4.446"></path>
          <path id="b-10" data-name="b" d="m70.572,419.902l71.344-52.201,22.287,34.066s-82.101,64.401-84.159,65.622c-6.696,3.971-14.519,5.358-18.381,4.446" fill="none" stroke="#feffff" stroke-linecap="round" stroke-linejoin="round" stroke-width="1.5"></path>
          <line id="st-9" data-name="st" x1="83.91" y1="410.144" x2="84.231" y2="392.628" fill="none" stroke="#feffff" stroke-linecap="round" stroke-linejoin="round" stroke-width="1.5"></line>
          <path id="st-10" data-name="st" d="m177.14,393.534c.128,4.718,2.37,54.843,3.381,77.223" fill="none" stroke="#feffff" stroke-linecap="round" stroke-linejoin="round" stroke-width="1.5"></path>
          <g id="ha-2" data-name="ha">
            <path id="sk-5" data-name="sk" d="m277.043,369.898s1.032-6.457,2.016-10.228c.984-3.772-5.799-3.621-6.907,1.303s-1.076,5.777-1.076,5.777" fill="#fffdfd" stroke="#000" stroke-linecap="round" stroke-linejoin="round" stroke-width="1.5"></path>
            <polygon id="b-11" data-name="b" points="205.056 406.044 219.351 340.037 275.234 340.037 277.958 342.773 207.78 408.78 205.056 406.044 205.056 406.044" fill="#fff" stroke="#000" stroke-linecap="round" stroke-linejoin="round" stroke-width="1.5"></polygon>
            <polygon id="b-12" data-name="b" points="207.78 408.78 222.075 342.773 277.958 342.773 263.663 408.78 263.663 408.78 207.78 408.78 207.78 408.78" fill="#fff" stroke="#000" stroke-linecap="round" stroke-linejoin="round" stroke-width="1.5"></polygon>
            <path id="st-11" data-name="st" d="m266.598,345.359c2.29,0,4.146-1.856,4.146-4.146,0-2.29-1.856-4.146-4.146-4.146-1.717,0-3.191,1.044-3.82,2.532" fill="none" stroke="#000" stroke-linecap="round" stroke-linejoin="round" stroke-width="1.5"></path>
            <path id="st-12" data-name="st" d="m261.178,345.359c2.29,0,4.146-1.856,4.146-4.146,0-2.29-1.856-4.146-4.146-4.146-1.717,0-3.191,1.044-3.82,2.532" fill="none" stroke="#000" stroke-linecap="round" stroke-linejoin="round" stroke-width="1.5"></path>
            <path id="st-13" data-name="st" d="m255.757,345.359c2.29,0,4.146-1.856,4.146-4.146s-1.856-4.146-4.146-4.146c-1.717,0-3.191,1.044-3.82,2.532" fill="none" stroke="#000" stroke-linecap="round" stroke-linejoin="round" stroke-width="1.5"></path>
            <path id="st-14" data-name="st" d="m250.337,345.359c2.29,0,4.146-1.856,4.146-4.146,0-2.29-1.856-4.146-4.146-4.146-1.717,0-3.191,1.044-3.82,2.532" fill="none" stroke="#000" stroke-linecap="round" stroke-linejoin="round" stroke-width="1.5"></path>
            <path id="st-15" data-name="st" d="m244.917,345.359c2.29,0,4.146-1.856,4.146-4.146,0-2.29-1.856-4.146-4.146-4.146-1.717,0-3.191,1.044-3.82,2.532" fill="none" stroke="#000" stroke-linecap="round" stroke-linejoin="round" stroke-width="1.5"></path>
            <path id="st-16" data-name="st" d="m239.496,345.359c2.29,0,4.146-1.856,4.146-4.146s-1.856-4.146-4.146-4.146c-1.717,0-3.191,1.044-3.82,2.532" fill="none" stroke="#000" stroke-linecap="round" stroke-linejoin="round" stroke-width="1.5"></path>
            <path id="st-17" data-name="st" d="m234.076,345.359c2.29,0,4.146-1.856,4.146-4.146,0-2.29-1.856-4.146-4.146-4.146-1.717,0-3.191,1.044-3.82,2.532" fill="none" stroke="#000" stroke-linecap="round" stroke-linejoin="round" stroke-width="1.5"></path>
            <path id="st-18" data-name="st" d="m228.656,345.359c2.29,0,4.146-1.856,4.146-4.146,0-2.29-1.856-4.146-4.146-4.146-1.717,0-3.191,1.044-3.82,2.532" fill="none" stroke="#000" stroke-linecap="round" stroke-linejoin="round" stroke-width="1.5"></path>
            <line id="st-19" data-name="st" x1="222.075" y1="342.773" x2="219.351" y2="340.037" fill="#1b82fb" stroke="#000" stroke-linecap="round" stroke-linejoin="round" stroke-width="1.5"></line>
            <path id="sk-6" data-name="sk" d="m268.486,372.122c-1.805-.636-3.077-1.147-5.402-1.859-3.861-1.183-3.61-5.127,1.438-4.405.739.106,2.697.203,4.293.541-1.294-.493-2.645-.856-4.08-1.78-2.61-1.681-.794-3.722,2.26-3.704,1.394.008,4.079-.016,7.849,1.986,2.903,1.542,5.625,3.693,6.333,5.517,1.932,4.972-.985,16.364-2.135,20.484-1.73,6.18-4.42,11.96-7.36,17.12l-6.44-4.52,3.641-16.849c-1.473-1.473-4.885-2.807-6.577-3.863-1.272-.794-1.239-2.227.616-2.877.9-.315,2.515-.85,5.333-.004-.237-.204-.486-.183-.693-.358-2.092-1.766-6.004-1.075-6.751-3.143-.524-1.449,1.37-3.672,7.674-2.286Z" fill="#fffdfd" stroke="#000" stroke-linecap="round" stroke-linejoin="round" stroke-width="1.5"></path>
            <path id="st-20" data-name="st" d="m278.043,372.898s-2.425-3.23-5.198-4.996c-1.256-.8-2.87-1.28-4.344-1.568" fill="#feffff" stroke="#000" stroke-linecap="round" stroke-linejoin="round" stroke-width="1.5"></path>
            <path id="st-21" data-name="st" d="m267.268,377.329c2.12,1.076,6.004,4.494,6.004,4.494" fill="none" stroke="#000" stroke-linecap="round" stroke-linejoin="round" stroke-width="1.5"></path>
            <path id="st-22" data-name="st" d="m275.597,377.432s-2.486-3.176-5.459-4.684c-.499-.253-1.061-.46-1.652-.628" fill="none" stroke="#000" stroke-linecap="round" stroke-linejoin="round" stroke-width="1.5"></path>
            <line id="st-23" data-name="st" x1="268.884" y1="384.653" x2="270.744" y2="386.356" fill="#feffff" stroke="#000" stroke-linecap="round" stroke-linejoin="round" stroke-width="1.5"></line>
          </g>
        </g>
        <line x1="17.018" y1="471.731" x2="17.018" y2="735.033" fill="#fff" stroke="#000" stroke-linecap="round" stroke-linejoin="round" stroke-width="1.5"></line>
        <line x1="375.141" y1="471.731" x2="375.141" y2="735.033" fill="#fff" stroke="#000" stroke-linecap="round" stroke-linejoin="round" stroke-width="1.5"></line>
        <rect x=".75" y="463.992" width="393.174" height="11.739" fill="#fff" stroke="#000" stroke-linecap="round" stroke-linejoin="round" stroke-width="1.5"></rect>
      </g>
      <g>
        <path id="bl-2" data-name="bl" d="m965.314,735.329l67.829-52.73-21.709-26.079-41.91,26.076s10.055,16.734-1.195,27.08c-17.75,16.334-3.015,25.654-3.015,25.654Z"></path>
        <path id="l" d="m823.684,518.206l140.3,176.46,59.93-45.09-133.72-173.04,26.529-141.678-73.947-.972-31.363,135.51c-2.67,17.17,1.8,34.95,12.27,48.81Z" fill="#fcfcfc"></path>
        <line id="st-24" data-name="st" x1="1012.329" y1="633.861" x2="951.677" y2="678.47" fill="none" stroke="#000" stroke-linecap="round" stroke-linejoin="round" stroke-width="1.5"></line>
        <path id="st-25" data-name="st" d="m909.41,384.119l-19.191,92.429,133.607,172.91-59.757,45.322-140.312-176.476c-10.552-13.913-15.042-31.785-12.318-49.034l31.813-135.312" fill="none" stroke="#000" stroke-linecap="round" stroke-linejoin="round" stroke-width="1.5"></path>
        <path id="bl-3" data-name="bl" d="m944.936,701.034l.779,33.913h-78.98s-5.238-16.694,19.232-18.733c15.503-1.292,11.166-16.795,11.166-16.795"></path>
        <polyline id="l-2" data-name="l" points="884.959 333.854 882.001 706.55 957.136 706.644 963.019 334.209" fill="#fcfcfc"></polyline>
        <polyline id="st-26" data-name="st" points="883.48 398.002 882.001 706.55 957.136 706.644 963.019 334.209" fill="none" stroke="#000" stroke-linecap="round" stroke-linejoin="round" stroke-width="1.5"></polyline>
        <line id="st-27" data-name="st" x1="882.001" y1="687.47" x2="957.391" y2="687.47" fill="none" stroke="#000" stroke-linecap="round" stroke-linejoin="round" stroke-width="1.5"></line>
        <path id="h_1_sh" d="m916.242,174.786l-11.105,19.702-3.191-13.505s4.867-.579,8.999-2.778c4.133-2.198,5.297-3.419,5.297-3.419Z" stroke="#000" stroke-linecap="round" stroke-linejoin="round" stroke-width="1.5"></path>
        <ellipse id="h_1_h" cx="895.935" cy="122.482" rx="29.047" ry="29.199" transform="translate(-6.173 184.955) rotate(-11.746)" fill="#1b82fb" stroke="#000" stroke-linecap="round" stroke-linejoin="round" stroke-width="1.5"></ellipse>
        <path id="h_1_sk" d="m917.318,150.024c4.483-.069,8.052-3.826,7.972-8.39-.076-4.368-3.469-7.884-7.689-8.118-3.344-14.685-15.473-25.728-30.864-25.489-11.571.179-15.685,6.491-21.153,15.94-2.894,5-2.056,34.323,1.846,40.615,2.61,4.207,7.281,7.03,14.81,8.268l.365,17.081s-.986,16.491,16.937,15.624c18.18-.879,17.999-16.849,17.999-16.849,0,0-.527-36.479-.38-38.687.052,0,.103.006.155.006Z" fill="#fffdfd" stroke="#000" stroke-linecap="round" stroke-linejoin="round" stroke-width="1.5"></path>
        <path id="h_1_h-2" data-name="h_1_h" d="m897.954,98.442c-.989-8.197-8.005-14.492-16.399-14.362-6.074.094-11.302,3.534-13.999,8.541-2.236-.893-4.678-1.372-7.232-1.332-10.381.161-18.649,8.748-18.467,19.179.182,10.431,8.745,18.757,19.125,18.596,6.085-.094,11.428-3.096,14.784-7.655l27.869.096s-2.369,11.2,7.974,16.193l1.443,7.289c.071.36.389.617.756.611l2.096-.032c.375-.006.689-.284.74-.656l1.709-12.469-1.39-12.863c-1.015-9.394-7.432-17.325-16.407-20.278l-2.604-.857Z" fill="#1b82fb"></path>
        <path id="h_1_st" d="m897.954,98.442c-.215-1.781-.714-3.472-1.45-5.027-2.652-5.602-8.378-9.437-14.949-9.335-6.074.094-11.302,3.534-13.999,8.541-2.236-.893-4.678-1.372-7.232-1.332-10.381.161-18.649,8.748-18.467,19.179.182,10.431,8.745,18.757,19.125,18.596,6.085-.094,11.428-3.096,14.784-7.655l27.869.096s-2.369,11.2,7.974,16.193l1.443,7.289c.071.36.389.617.756.611l2.096-.032c.375-.006.689-.284.74-.656l1.554-11.334" fill="none" stroke="#000" stroke-linecap="round" stroke-linejoin="round" stroke-width="1.5"></path>
        <path id="h_1_sh-2" data-name="h_1_sh" d="m897.51,169.747l-14.944,16.975-.326-13.873s4.881.441,9.379-.854,5.89-2.248,5.89-2.248Z" stroke="#000" stroke-linecap="round" stroke-linejoin="round" stroke-width="1.5"></path>
        <g id="e_4_eye">
          <path d="m889.799,136.594l-.014-.141c.008-.207-.035-.399-.129-.578-.06-.186-.164-.347-.31-.483-.136-.146-.297-.25-.483-.31-.179-.094-.371-.137-.578-.129l-.399.054c-.254.071-.475.2-.662.386l-.235.304c-.136.234-.204.486-.205.757l.014.141c-.008.207.035.399.129.578.06.186.164.347.31.483.136.146.297.25.483.31.179.094.371.137.578.129l.399-.054c.254-.071.475-.2.662-.386l.235-.304c.136-.234.204-.486.205-.757h0Z"></path>
        </g>
        <g id="e_4_eye-2" data-name="e_4_eye">
          <path d="m872.362,137.821l-.014-.141c.008-.207-.035-.399-.129-.578-.06-.186-.164-.347-.31-.483-.136-.146-.297-.25-.483-.31-.179-.094-.371-.137-.578-.129l-.399.054c-.254.071-.475.2-.662.386l-.235.304c-.136.234-.204.486-.205.757l.014.141c-.008.207.035.399.129.578.06.186.164.347.31.483.136.146.297.25.483.31.179.094.371.137.578.129l.399-.054c.254-.071.475-.2.662-.386l.235-.304c.136-.234.204-.486.205-.757h0Z"></path>
        </g>
        <path id="e_4_st" d="m878.493,144.445l-.844,3.993c-.156.737.484,1.399,1.222,1.263l3.507-.644" fill="none" stroke="#000" stroke-linecap="round" stroke-linejoin="round" stroke-width="1.5"></path>
        <path id="e_4_st-2" data-name="e_4_st" d="m887.345,131.357s5.042-1.777,7.637,1.581" fill="none" stroke="#000" stroke-linecap="round" stroke-linejoin="round" stroke-width="1.5"></path>
        <path id="e_4_st-3" data-name="e_4_st" d="m893.151,152.787s-1.512,5.494-8.416,4.575" fill="none" stroke="#000" stroke-linecap="round" stroke-linejoin="round" stroke-width="1.5"></path>
        <path id="e_4_st-4" data-name="e_4_st" d="m867.75,133.389s3.889-3.176,7.644-1.223" fill="none" stroke="#000" stroke-linecap="round" stroke-linejoin="round" stroke-width="1.5"></path>
        <g id="ha-3" data-name="ha">
          <path id="sk-7" data-name="sk" d="m656.341,138.234c.152.896,1.357,3.258,3.236,6.017l-.016-.018c-1.884-1.579-2.52-.195-2.563.553-.278,4.78,4.866,10.588,14.732,19.336,5.721,5.072,20.149,15.237,20.149,15.237l25.19-15.724s-17.313-13.69-22.799-18.582c-5.418-4.831-9.27-10.758-11.718-10.093-2.252.612-.915,4.442,1.521,8.567l.377.23-.124.006c-4.625-3.017-10.985-7.263-17.677-12.03-.818-.583-3.926-.737-2.261,2.935l-.04-.071c-2.406-2.604-4.817-4.193-5.459-1.797-.271,1.01.518,2.865,1.171,4.193-2.116-2.008-4.057-.756-3.719,1.24Z" fill="#fffdfd"></path>
          <path id="st-28" data-name="st" d="m691.878,179.36s-14.428-10.165-20.149-15.237c-9.866-8.748-15.01-14.557-14.732-19.336.043-.748.68-2.131,2.563-.553" fill="none" stroke="#000" stroke-linecap="round" stroke-linejoin="round" stroke-width="1.5"></path>
          <path id="st-29" data-name="st" d="m717.067,163.635s-17.313-13.69-22.799-18.582c-5.418-4.831-9.27-10.758-11.718-10.093-2.252.612-.915,4.442,1.521,8.567" fill="none" stroke="#000" stroke-linecap="round" stroke-linejoin="round" stroke-width="1.5"></path>
          <path id="st-30" data-name="st" d="m670.061,155.052c-7.187-4.469-13.363-14.707-13.72-16.819-.338-1.997,1.605-3.249,3.722-1.237" fill="none" stroke="#000" stroke-linecap="round" stroke-linejoin="round" stroke-width="1.5"></path>
          <path id="st-31" data-name="st" d="m673.525,150.97c-5.917-4.222-10.918-9.052-13.069-13.189-.652-1.253-1.897-3.749-1.568-4.98.642-2.397,3.053-.807,5.459,1.797" fill="none" stroke="#000" stroke-linecap="round" stroke-linejoin="round" stroke-width="1.5"></path>
          <path id="st-32" data-name="st" d="m691.598,148.417s-11.845-7.349-24.949-16.683c-.839-.597-4.1-.756-2.139,3.211,2.479,5.015,12.767,11.379,12.767,11.379" fill="none" stroke="#000" stroke-linecap="round" stroke-linejoin="round" stroke-width="1.5"></path>
        </g>
        <path id="bl-4" data-name="bl" d="m964.229,230.819c.46,10.16-1.21,103.39-1.21,103.39l-120.34-.35,2.15-86.9-32.68,10.76-47.41,14.54-.92.29c-9.53,2.9-20.24-.46-26.26-9.07l-60.72-86.82,33.31-25.24,55.94,68.27s55.19-18.73,75.02-25.2c4.68-1.53,11.26-4.14,24.12-4.14l17.37-.19,15.64,9.318,19.24-9.698,25.59-.28c40.68-1.42,21.13,40.61,21.16,41.32Z"></path>
        <polygon id="b-13" data-name="b" points="918.04 182.49 923.318 190.084 908.765 212.449 898.239 199.477 918.04 182.49" fill="#fdfdff" stroke="#000" stroke-linecap="round" stroke-linejoin="round" stroke-width="1.5"></polygon>
        <polygon id="b-14" data-name="b" points="898.239 199.477 887.066 211.27 876.717 190.779 882.057 183.74 898.239 199.477" fill="#fdfdff" stroke="#000" stroke-linecap="round" stroke-linejoin="round" stroke-width="1.5"></polygon>
        <g id="ha-4" data-name="ha">
          <path id="sk-8" data-name="sk" d="m962.002,318.146l-5.883,2.591-2.917,1.484c-6.945-.353-14.609-2.016-15.424.243-.485,1.344,2.363,2.941,5.831,4.287,0,0-2.125,1.244-2.583,1.582-9.146,6.745-16.39,18.519-15.491,20.298.425.841,1.252,1.416,2.536.795.332-.16.669-.372,1.006-.607-1.682,2.673-2.634,4.882-1.634,5.864,1.323,1.3,2.733.822,4.179-.489-.06.358-.038.651.086.857,1.832,3.039,4.898.151,7.122-2.931.108-.15.264-.344.441-.556-.373.827-.603,1.5-.662,1.894-.361,2.432,2.975,2.882,5.025-.29,7.267-11.246,20.94-6.886,40.582-25.45l-22.215-9.573Z" fill="#fffdfd" stroke="#000" stroke-linecap="round" stroke-linejoin="round" stroke-width="1.5"></path>
          <path id="st-33" data-name="st" d="m929.196,348.628c1.241-1.948,2.729-4.222,4.37-6.258,4.856-6.026,6.912-7.903,9.361-9.564" fill="#feffff" stroke="#000" stroke-linecap="round" stroke-linejoin="round" stroke-width="1.5"></path>
          <path id="st-34" data-name="st" d="m945.639,337.304s-.989.582-2.781,2.065c-3.055,2.528-11.11,12.023-11.268,15.082" fill="#feffff" stroke="#000" stroke-linecap="round" stroke-linejoin="round" stroke-width="1.5"></path>
          <path id="st-35" data-name="st" d="m948.458,341.013s-3.17,2.267-4.598,3.735c-2.223,2.285-3.921,5.237-4.735,7.149" fill="#feffff" stroke="#000" stroke-linecap="round" stroke-linejoin="round" stroke-width="1.5"></path>
        </g>
        <path id="bl-5" data-name="bl" d="m977.956,340.791l54.557-58.553c.84-.908,1.715-1.99,2.426-3.049,7.42-11.052,4.475-26.025-6.576-33.445l-.794-.533-65.15-50.928c-11.432-7.675-21.79-.601-29.464,10.831-7.675,11.432-4.629,22.835,6.802,30.51l47.363,35.883-35.175,43.722,26.011,25.562Z"></path>
        <polyline id="st-36" data-name="st" points="963.711 300.624 951.904 315.372 956.595 320.163" fill="none" stroke="#feffff" stroke-linecap="round" stroke-linejoin="round" stroke-width="1.5"></polyline>
        <line id="st-37" data-name="st" x1="844.826" y1="246.957" x2="844.826" y2="229.107" fill="none" stroke="#feffff" stroke-linecap="round" stroke-linejoin="round" stroke-width="1.5"></line>
        <line id="st-38" data-name="st" x1="956.228" y1="247.982" x2="964.1" y2="253.861" fill="none" stroke="#feffff" stroke-linecap="round" stroke-linejoin="round" stroke-width="1.5"></line>
      </g>
    </g>
  </g>
</svg>