<svg width="581" height="487" viewBox="0 0 581 487" fill="none" xmlns="http://www.w3.org/2000/svg" style="width: 100%; height: 100%;">
<g clip-path="url(#clip0_35_2378)">
<path d="M106.18 258.545L119.221 28.819H453.084L440.043 258.545H106.18Z" fill="#E3E3FF" stroke="#010101" stroke-width="1.5" stroke-linecap="round" stroke-linejoin="round"></path>
<path d="M119.221 28.819L120.353 7.36102H454.216L453.084 28.819H119.221Z" fill="#010101" stroke="#010101" stroke-width="1.5" stroke-linecap="round" stroke-linejoin="round"></path>
<path d="M226.62 471.713C228.161 475.952 229.107 480.407 229.423 484.907C248.505 483.936 267.587 484.663 286.669 483.692C287.099 481.977 286.19 480.142 284.832 479.009C283.474 477.876 281.74 477.312 280.035 476.842C275.346 475.549 270.487 473.058 266.033 471.105C261.579 469.152 257.436 465.766 256.045 461.105C246.373 462.601 236.869 465.181 226.622 471.713H226.62Z" fill="white" stroke="#010101" stroke-width="1.5" stroke-linecap="round" stroke-linejoin="round"></path>
<path d="M188.296 410.42C200.865 430.105 211.691 454.143 221.73 476.085C235.726 472.367 249.304 467.078 261.975 460.582C250.665 437.387 239.468 410.859 227.901 387.791C219.767 371.57 211.469 355.225 199.864 341.275C191.108 350.477 181.962 360.414 179.615 372.897C178.401 379.355 179.13 386.023 180.354 392.479C181.888 400.571 184.193 408.515 188.296 410.42Z" fill="#7B5FF1" stroke="#010101" stroke-width="1.5" stroke-linecap="round" stroke-linejoin="round"></path>
<path d="M59.6159 364.097C56.7889 387.11 49.2949 449.433 45.0759 483.774" stroke="#010101" stroke-width="1.5" stroke-linecap="round" stroke-linejoin="round"></path>
<path d="M127.213 360.766C137.119 404.537 147.497 442.26 158.344 485.807" stroke="#010101" stroke-width="1.5" stroke-linecap="round" stroke-linejoin="round"></path>
<path d="M195.523 292.311C201.078 293.718 207.255 292.198 211.621 288.512C212.8 287.516 214.516 287.491 215.735 288.437L217.803 291.046C218.467 291.561 219.958 293.364 221.195 291.87C221.477 291.172 221.068 290.402 220.672 289.761C219.538 287.922 218.969 286.083 217.835 284.243C219.007 285.908 219.612 287.572 220.784 289.237C221.608 290.408 222.662 291.704 224.094 291.689C224.379 291.686 224.681 291.618 224.881 291.415C225.162 291.127 225.155 290.672 225.115 290.272C224.814 287.295 223.382 284.975 222.061 282.836C223.592 285.668 225.564 287.849 227.401 290.493C227.679 290.893 228.019 291.327 228.503 291.378C229.05 291.436 229.533 290.941 229.655 290.405C229.777 289.869 229.63 289.311 229.471 288.785C228.686 286.187 227.575 283.686 226.174 281.361C227.546 284.294 229.358 287.02 231.532 289.419C232.013 289.95 232.546 290.487 233.236 290.682C233.926 290.877 234.802 290.59 235.015 289.906C235.104 289.621 235.067 289.322 234.986 289.03C234.748 288.173 234.4 287.353 234.039 286.54C233.083 284.384 232.17 281.995 230.426 280.314C228.241 278.207 225.09 277.507 222.096 277.009C213.606 275.599 204.963 275.115 196.369 275.567C195.074 280.238 193.786 285.272 195.523 292.311Z" fill="white" stroke="#010101" stroke-width="1.5" stroke-linecap="round" stroke-linejoin="round"></path>
<path d="M79.8279 353.226C73.6009 353.18 71.8569 352.782 65.6879 353.629C62.0959 354.122 58.0439 354.993 57.7329 358.606C57.5259 361.007 58.2839 362.341 60.5079 363.271C62.7319 364.201 65.2239 364.157 67.6329 364.098C97.9869 363.358 124.115 363.724 154.469 362.985C156.262 362.941 158.102 362.888 159.76 362.205C161.418 361.522 162.88 360.06 163.026 358.272C163.179 356.397 161.839 354.653 160.181 353.764C158.523 352.875 156.6 352.426 154.721 352.508C139.639 353.166 97.1589 353.354 79.8289 353.227L79.8279 353.226Z" fill="white" stroke="#010101" stroke-width="1.5" stroke-linecap="round" stroke-linejoin="round"></path>
<path d="M129.083 353.117C129.852 352.944 130.678 353.207 131.298 353.693C131.918 354.179 132.353 354.869 132.664 355.594C133.077 356.559 133.288 357.609 133.295 358.659C133.303 359.748 133.082 360.863 132.49 361.777C131.898 362.691 130.9 363.376 129.812 363.423" stroke="#010101" stroke-width="1.5" stroke-linecap="round" stroke-linejoin="round"></path>
<path d="M92.734 184.139C94.108 180.501 92.883 176.38 91.018 172.967C89.152 169.555 86.65 166.479 85.205 162.868C81.717 154.152 85.303 144.762 92.41 138.627C96.885 134.763 102.612 132.372 108.506 131.905C113.167 131.536 117.724 132.893 122.299 133.861C126.403 134.73 131.16 137.345 134.41 139.998C137.534 142.548 142.237 147.766 133.622 150.995C132.378 151.461 132.649 150.45 131.481 151.084C127.902 153.026 126.897 157.559 125.288 161.3C121.593 169.895 113.482 175.623 105.755 180.898C101.848 183.565 97.037 186.347 92.734 184.139Z" fill="#010101" stroke="#010101" stroke-width="1.5" stroke-linecap="round" stroke-linejoin="round"></path>
<path d="M133.117 148.78C136.602 152.563 135.938 158.249 136.222 161.944C136.519 165.811 137.748 169.603 139.775 172.91C138.544 173.448 137.312 173.986 136.081 174.525C135.719 178.078 135.193 181.972 132.545 184.369C131.407 185.399 129.973 186.045 128.516 186.529C124.391 187.898 119.875 188.068 115.541 187.103C114.998 190.29 114.663 193.513 114.539 196.744C106.408 196.235 98.365 194.335 90.866 191.151C91.867 188.81 92.459 186.294 92.608 183.752C99.469 184.777 106.063 182.172 109.908 174.091C108.839 174.766 105.058 172.892 104.102 170.754C102.24 166.588 104.839 158.047 111.656 160.356C114.587 161.349 114.877 164.462 115.506 164.91C115.797 165.117 116.192 165.067 116.545 165.007C117.329 164.874 118.114 164.742 118.898 164.609C119.323 164.537 119.771 164.455 120.101 164.177C121.053 163.373 120.319 161.87 120.179 160.632C120.01 159.144 120.866 157.703 121.98 156.703C123.095 155.703 124.461 155.038 125.728 154.239C128.039 152.781 131.227 150.772 133.117 148.78Z" fill="white" stroke="#010101" stroke-width="1.5" stroke-linecap="round" stroke-linejoin="round"></path>
<path d="M109.908 163.165C109.066 163.392 108.252 163.814 107.706 164.493C107.16 165.173 106.926 166.137 107.251 166.945" stroke="#010101" stroke-width="1.5" stroke-linecap="round" stroke-linejoin="round"></path>
<path d="M108.505 184.188C109.589 185.406 111.201 185.995 112.766 186.453C114.109 186.845 115.479 187.177 116.876 187.259" stroke="#010101" stroke-width="1.5" stroke-linecap="round" stroke-linejoin="round"></path>
<path d="M120.069 219.682C121.49 211.77 119.194 202.687 118.846 194.655C107.318 192.02 98.629 190.398 87.1 187.763C81.056 194.226 74.947 200.777 70.681 208.529C67.651 214.035 65.619 220.027 63.78 226.037C55.532 252.994 50.868 281.046 49.952 309.223C49.899 310.857 49.891 312.611 50.807 313.966C51.598 315.137 52.939 315.792 54.224 316.379C65.942 321.73 78.525 325.751 91.407 325.772C104.29 325.793 117.552 321.435 126.408 312.079C125.26 299.055 123.202 286.111 120.255 273.373C117.964 263.475 115.119 253.564 115.14 243.404C115.157 235.306 118.633 227.678 120.069 219.682Z" fill="#FF8B37" stroke="#010101" stroke-width="1.5" stroke-linecap="round" stroke-linejoin="round"></path>
<path d="M81.134 194.655C95.639 198.842 117.827 201.885 119.687 203.393" stroke="#010101" stroke-width="1.5" stroke-linecap="round" stroke-linejoin="round"></path>
<path d="M92.176 224.873C91.45 220.238 92.636 215.353 94.741 211.16C96.846 206.967 103.817 203.515 108.508 203.447C113.181 203.379 117.379 206.649 119.797 210.648C122.215 214.647 123.201 219.32 124.255 223.873C127.765 239.034 132.443 253.925 138.308 268.012C158.708 269.059 179.107 270.106 199.507 271.153C200.816 279.865 200.995 287.689 200.03 296.446C151.327 296.446 115.135 300.207 109.908 287.768C103.586 272.724 97.772 260.586 92.176 224.873Z" fill="#FF8B37" stroke="#010101" stroke-width="1.5" stroke-linecap="round" stroke-linejoin="round"></path>
<path d="M206.257 296.593C205.752 295.553 205.478 292.496 208.709 292.356C226.371 291.594 249.409 289.834 267.071 289.071C268.947 288.99 271.575 289.67 271.309 291.53C271.108 292.939 269.336 293.469 267.914 293.535C247.841 294.465 230.771 295.457 206.256 296.593H206.257Z" fill="white" stroke="#010101" stroke-width="1.5" stroke-linecap="round" stroke-linejoin="round"></path>
<path d="M140.726 466.634C139.869 472.445 139.011 478.257 138.154 484.068C138.108 484.382 138.064 484.714 138.189 485.006C138.453 485.619 139.269 485.713 139.936 485.714C156.809 485.745 173.682 485.777 190.555 485.808C191.101 484.131 190.34 482.26 189.138 480.969C187.936 479.679 186.348 478.831 184.845 477.909C181.224 475.687 177.945 472.908 175.159 469.7C174.26 468.665 173.365 467.548 172.114 466.988C171.15 466.556 170.067 466.498 169.012 466.449C160.44 466.047 151.863 465.773 140.726 466.635V466.634Z" fill="white" stroke="#010101" stroke-width="1.5" stroke-linecap="round" stroke-linejoin="round"></path>
<path d="M51.4389 311.399C50.9139 318.634 51.2959 326.063 53.8259 332.861C56.3559 339.66 61.2389 345.796 67.8829 348.708C71.8329 350.439 76.1689 351.239 80.4769 351.424C109.827 352.684 136.26 352.906 160.324 352.051C150.174 390.829 140.812 429.813 133.53 468.849C150.506 470.076 167.521 470.751 183.468 470.677C193.433 430.898 199.259 390.197 203.777 349.439C205.075 337.727 205.619 324.147 197.005 316.107C190.854 310.367 181.804 309.297 173.413 308.697C157.571 307.564 143.664 308.576 127.901 308.576C101.371 308.576 77.8609 309.998 51.4399 311.398L51.4389 311.399Z" fill="#7B5FF1" stroke="#010101" stroke-width="1.5" stroke-linecap="round" stroke-linejoin="round"></path>
<path d="M267.268 291.443C271.812 268.452 275.225 256.778 279.769 233.787C279.865 233.299 279.983 232.774 280.361 232.45C281.038 231.869 282.174 232.335 282.589 233.124C283.004 233.913 282.912 234.862 282.805 235.747C280.709 253.102 272.941 284.76 271.845 290.073C271.591 291.303 271.247 292.668 270.182 293.334C269.117 294 266.942 293.099 267.269 291.444L267.268 291.443Z" fill="white" stroke="#010101" stroke-width="1.5" stroke-linecap="round" stroke-linejoin="round"></path>
<path d="M57.7319 358.606C32.6319 303.353 25.7629 276.04 27.0349 267.579C27.2579 266.099 27.8859 264.419 29.3259 264.01C31.0999 263.506 32.6659 265.255 33.5649 266.865C35.6659 270.633 36.9699 274.781 38.3089 278.882C46.7649 304.789 54.3409 329.143 66.5279 353.519C61.6609 353.519 58.057 356.448 57.733 358.606H57.7319Z" fill="white" stroke="#010101" stroke-width="1.5" stroke-linecap="round" stroke-linejoin="round"></path>
<path d="M10.689 296.769C102.75 294.755 190.995 299.375 282.894 293.554" stroke="#010101" stroke-width="1.5" stroke-linecap="round" stroke-linejoin="round"></path>
<path d="M18.511 296.593C15.487 335.484 6.863 434.341 0.75 485.658" stroke="#010101" stroke-width="1.5" stroke-linecap="round" stroke-linejoin="round"></path>
<path d="M275.799 294.59C284.645 326.497 310.582 410.24 330.969 483.774" stroke="#010101" stroke-width="1.5" stroke-linecap="round" stroke-linejoin="round"></path>
<path d="M342.013 482.611C351.907 464.574 364.28 447.899 378.675 433.203C384.035 427.731 389.915 422.385 397.182 419.964C399.466 419.203 402.139 418.797 404.15 420.12C406.51 421.671 406.978 424.899 407.021 427.723C407.317 447.238 398.233 465.518 389.367 482.905C372.319 484.792 355.122 485.327 342.013 482.611Z" fill="#55D087" stroke="#010101" stroke-width="1.5" stroke-linecap="round" stroke-linejoin="round"></path>
<path d="M399.729 422.768C386.867 442.91 374.004 463.051 361.142 483.193" stroke="#010101" stroke-width="1.5" stroke-linecap="round" stroke-linejoin="round"></path>
<path d="M303.317 483.738C311.119 468.063 316.233 451.191 323.451 435.239C330.669 419.287 340.441 403.813 355.045 394.154C358.082 392.145 362.264 390.452 365.142 392.683C366.428 393.68 367.11 395.26 367.611 396.808C370.34 405.251 369.147 414.435 367.284 423.11C362.861 443.705 354.846 463.415 350.761 484.079C333.102 484.079 326.177 483.737 303.318 483.737L303.317 483.738Z" fill="#55D087" stroke="#010101" stroke-width="1.5" stroke-linecap="round" stroke-linejoin="round"></path>
<path d="M360.202 397.135C346.908 425.169 334.931 453.827 324.325 482.983" stroke="#010101" stroke-width="1.5" stroke-linecap="round" stroke-linejoin="round"></path>
<path d="M380.449 323.802C379.306 324.161 378.737 325.675 379.291 326.737C379.845 327.799 381.321 328.222 382.394 327.687C383.458 327.157 384.012 325.739 383.505 324.664C382.998 323.589 381.597 323.441 380.45 323.801L380.449 323.802Z" fill="#010101" stroke="#010101" stroke-width="1.5" stroke-linecap="round" stroke-linejoin="round"></path>
<path d="M48.8679 158.886C47.7249 159.245 47.1559 160.759 47.7099 161.821C48.2639 162.883 49.7399 163.306 50.8129 162.771C51.8769 162.241 52.4309 160.823 51.9239 159.748C51.4169 158.673 50.0159 158.525 48.8689 158.885L48.8679 158.886Z" fill="#010101" stroke="#010101" stroke-width="1.5" stroke-linecap="round" stroke-linejoin="round"></path>
<path d="M519.441 32.464C517.498 32.48 515.626 33.965 515.304 35.881C514.982 37.797 516.376 39.879 518.294 40.185C520.322 40.508 522.361 38.775 522.59 36.735C522.82 34.695 521.408 32.658 519.441 32.464Z" fill="#010101" stroke="#010101" stroke-width="1.5" stroke-linecap="round" stroke-linejoin="round"></path>
<path d="M61.8621 0.75C62.8661 2.859 63.8711 4.969 64.8751 7.078Z" fill="#010101"></path>
<path d="M61.8621 0.75C62.8661 2.859 63.8711 4.969 64.8751 7.078" stroke="#010101" stroke-width="1.5" stroke-linecap="round" stroke-linejoin="round"></path>
<path d="M7.32202 246.631C10.244 244.637 13.166 242.643 16.088 240.65C15.677 241.338 15.266 242.026 7.32202 246.631Z" fill="#010101" stroke="#010101" stroke-width="1.5" stroke-linecap="round" stroke-linejoin="round"></path>
<path d="M570.74 214.951C573.628 216.544 576.517 218.137 579.405 219.73C579.686 219.885 580.012 220.144 579.917 220.45C579.822 220.756 579.236 220.367 570.74 214.951Z" fill="#010101" stroke="#010101" stroke-width="1.5" stroke-linecap="round" stroke-linejoin="round"></path>
<path d="M329.158 285.028C327.879 286.687 326.855 288.542 326.133 290.508Z" fill="#010101"></path>
<path d="M329.158 285.028C327.879 286.687 326.855 288.542 326.133 290.508" stroke="#010101" stroke-width="1.5" stroke-linecap="round" stroke-linejoin="round"></path>
<path d="M187.789 128.481C206.38 128.481 221.451 113.41 221.451 94.819C221.451 76.228 206.38 61.157 187.789 61.157C169.198 61.157 154.127 76.228 154.127 94.819C154.127 113.41 169.198 128.481 187.789 128.481Z" fill="white" stroke="#010101" stroke-width="1.5" stroke-miterlimit="10"></path>
<path d="M190.482 122.869C186.19 122.92 181.866 122.5 177.755 121.265C171.394 119.355 165.582 115.409 161.85 109.916C158.118 104.423 156.594 97.371 158.182 90.922C159.921 83.86 163.177 77.244 168.96 72.833C172.784 69.916 177.713 68.098 182.811 67.279C182.138 62.375 181.466 57.472 180.793 52.568C172.769 53.771 164.982 56.592 158.974 61.175C150.125 67.925 145.143 78.049 142.481 88.855C140.051 98.723 142.383 109.514 148.094 117.92C153.805 126.326 162.699 132.364 172.432 135.287C178.723 137.176 185.339 137.819 191.907 137.741C196.564 137.685 201.261 137.243 205.759 136.087C204.218 131.165 202.676 126.243 201.135 121.321C197.721 122.431 194.082 122.825 190.481 122.868L190.482 122.869Z" fill="#7B5FF1" stroke="#010101" stroke-width="1.5" stroke-linecap="round" stroke-linejoin="round"></path>
<path d="M203.105 120.598C202.46 120.872 201.801 121.106 201.137 121.322C202.678 126.244 204.22 131.166 205.761 136.088C207.622 135.61 209.452 135.022 211.225 134.268C223.97 128.854 232.004 115.821 233.71 101.997C228.311 101.915 222.916 101.625 217.541 101.109C216.034 109.534 210.939 117.27 203.105 120.598Z" fill="#010101" stroke="#010101" stroke-width="1.5" stroke-linecap="round" stroke-linejoin="round"></path>
<path d="M232.514 85.088C227.221 66.302 210.431 54.476 199.245 52.632C193.437 51.675 187.043 51.631 180.793 52.568C181.466 57.472 182.138 62.375 182.811 67.279C187.025 66.602 191.354 66.604 195.276 67.25C202.586 68.455 213.558 76.183 217.017 88.459C218.167 92.542 218.291 96.909 217.54 101.107C222.915 101.623 228.31 101.913 233.709 101.995C234.407 96.335 234.052 90.545 232.514 85.088Z" fill="#FF8B37" stroke="#010101" stroke-width="1.5" stroke-linecap="round" stroke-linejoin="round"></path>
<path d="M304.783 208.228C304.783 210.575 304.874 215.212 304.874 215.212C304.874 215.212 340.206 215.044 382.594 214.385C382.961 211.833 383.327 209.281 383.694 206.729C350.639 207.228 338.629 207.211 304.783 208.228Z" fill="white" stroke="#010101" stroke-width="1.5" stroke-linecap="round" stroke-linejoin="round"></path>
<path d="M383.695 206.729C383.328 209.281 382.962 211.833 382.595 214.385C391.258 214.25 420.5 213.525 427.381 213.406C427.928 209.986 428.168 208.68 427.467 205.8C419.935 205.909 391.234 206.616 383.695 206.729Z" fill="#FF8B37" stroke="#010101" stroke-width="1.5" stroke-linecap="round" stroke-linejoin="round"></path>
<path d="M304.783 229.976C304.783 232.323 304.874 237.291 304.874 237.291C304.874 237.291 321.549 237.656 358.15 237.018C358.52 234.445 358.89 231.872 359.259 229.299C334.53 229.719 330.03 229.218 304.783 229.976Z" fill="#7B5FF1" stroke="#010101" stroke-width="1.5" stroke-linecap="round" stroke-linejoin="round"></path>
<path d="M359.26 229.298C358.89 231.871 358.52 234.444 358.151 237.017C375.989 236.706 414.093 235.383 427.381 235.154C427.928 231.734 428.168 230.428 427.467 227.548C411.543 227.78 375.245 229.027 359.261 229.299L359.26 229.298Z" fill="white" stroke="#010101" stroke-width="1.5" stroke-linecap="round" stroke-linejoin="round"></path>
<path d="M427.381 189.084C427.928 185.664 428.168 184.358 427.467 181.478C398.621 181.897 369.767 182.321 340.558 182.978C340.202 185.456 339.846 187.934 339.49 190.412C366.763 190.028 403.97 189.489 427.381 189.085V189.084Z" fill="#7B5FF1" stroke="#010101" stroke-width="1.5" stroke-linecap="round" stroke-linejoin="round"></path>
<path d="M304.875 190.89C304.875 190.89 319.52 190.692 339.49 190.411C339.846 187.933 340.202 185.455 340.558 182.977C328.699 183.244 316.787 183.545 304.783 183.905C304.783 186.253 304.874 190.889 304.874 190.889L304.875 190.89Z" fill="#010101" stroke="#010101" stroke-width="1.5" stroke-linecap="round" stroke-linejoin="round"></path>
<path d="M280.403 142.607L284.434 47.032H421.829L417.798 142.607H280.403Z" fill="white" stroke="#010101" stroke-width="1.5" stroke-linecap="round" stroke-linejoin="round"></path>
<path d="M295.56 108.585C306.184 97.831 317.141 87.389 329.009 77.98C341.403 84.48 372.459 100.116 372.459 100.116C372.459 100.116 390.559 76.814 402.57 66.088" stroke="#010101" stroke-width="1.5" stroke-linecap="round" stroke-linejoin="round"></path>
<path d="M391.628 65.256C395.575 65.281 399.522 65.306 403.469 65.331C403.679 68.94 403.664 72.562 403.424 76.169" stroke="#010101" stroke-width="1.5" stroke-linecap="round" stroke-linejoin="round"></path>
<path d="M297.822 113.642L297.563 131.416L304.639 130.862L304.789 112.945L297.822 113.642Z" fill="#7B5FF1" stroke="#010101" stroke-width="1.5" stroke-linecap="round" stroke-linejoin="round"></path>
<path d="M371.665 107.984L370.745 131.673L377.822 131.119L378.632 107.288L371.665 107.984Z" fill="#7B5FF1" stroke="#010101" stroke-width="1.5" stroke-linecap="round" stroke-linejoin="round"></path>
<path d="M322.569 92.488L321.649 131.416H328.726L329.536 91.792L322.569 92.488Z" fill="#7B5FF1" stroke="#010101" stroke-width="1.5" stroke-linecap="round" stroke-linejoin="round"></path>
<path d="M396.648 81.254L395.492 131.673H402.569L403.615 80.558L396.648 81.254Z" fill="#7B5FF1" stroke="#010101" stroke-width="1.5" stroke-linecap="round" stroke-linejoin="round"></path>
<path d="M346.918 101.623L346.396 131.673H353.473L353.885 100.927L346.918 101.623Z" fill="#7B5FF1" stroke="#010101" stroke-width="1.5" stroke-linecap="round" stroke-linejoin="round"></path>
<path d="M299.234 134.479C291.739 126.909 285.398 120.669 277.902 113.098C276.751 111.935 274.143 109.876 272.868 111.487C271.96 112.634 273.546 116.821 279.827 122.216C273.552 116.26 270.586 113.725 264.311 107.768C263.518 107.015 262.519 106.203 261.559 106.499C260.575 106.803 260.243 108.193 260.6 109.278C260.958 110.363 261.793 111.2 262.594 111.985C267.193 116.486 267.128 117.197 271.727 121.698C265.876 115.739 265.481 114.809 259.006 109.68C257.934 108.831 256.467 107.971 255.462 108.756C253.324 110.939 257.653 114.665 260.961 117.634C262.856 119.335 264.679 120.932 269.294 124.81C264.547 121.12 262.793 119.361 258.038 115.684C257.145 114.993 256.183 114.275 255.12 114.207C254.057 114.139 252.942 115.049 253.155 116.186C253.291 116.91 253.881 117.447 254.431 117.915C259.524 122.249 261.02 124.251 266.113 128.585C262.372 125.494 261.964 125.123 257.776 122.864C256.532 122.193 254.713 121.734 254.156 123.018C253.642 124.204 254.827 125.525 255.867 126.353C266.103 134.504 274.143 139.779 284.38 147.93" fill="white"></path>
<path d="M299.234 134.479C291.739 126.909 285.398 120.669 277.902 113.098C276.751 111.935 274.143 109.876 272.868 111.487C271.96 112.634 273.546 116.821 279.827 122.216C273.552 116.26 270.586 113.725 264.311 107.768C263.518 107.015 262.519 106.203 261.559 106.499C260.575 106.803 260.243 108.193 260.6 109.278C260.958 110.363 261.793 111.2 262.594 111.985C267.193 116.486 267.128 117.197 271.727 121.698C265.876 115.739 265.481 114.809 259.006 109.68C257.934 108.831 256.467 107.971 255.462 108.756C253.324 110.939 257.653 114.665 260.961 117.634C262.856 119.335 264.679 120.932 269.294 124.81C264.547 121.12 262.793 119.361 258.038 115.684C257.145 114.993 256.183 114.275 255.12 114.207C254.057 114.139 252.942 115.049 253.155 116.186C253.291 116.91 253.881 117.447 254.431 117.915C259.524 122.249 261.02 124.251 266.113 128.585C262.372 125.494 261.964 125.123 257.776 122.864C256.532 122.193 254.713 121.734 254.156 123.018C253.642 124.204 254.827 125.525 255.867 126.353C266.103 134.504 274.143 139.779 284.38 147.93" stroke="#010101" stroke-width="1.5" stroke-linecap="round" stroke-linejoin="round"></path>
<path d="M279.827 122.216C278.843 124.079 278.018 126.055 277.721 128.14C277.424 130.225 277.689 132.439 278.765 134.25" stroke="#010101" stroke-width="1.5" stroke-linecap="round" stroke-linejoin="round"></path>
<path d="M497.354 374.765C505.423 401.382 517.319 439.784 525.184 461.167C532.416 462.222 540.088 459.626 545.193 454.396C544.671 445.511 533.54 355.745 526.153 336.705C523.13 328.914 518.784 321.347 512.074 316.367C508.908 314.017 504.791 311.916 501.076 313.236C488.68 317.641 485.998 343.893 497.354 374.765Z" fill="white" stroke="#010101" stroke-width="1.5" stroke-linecap="round" stroke-linejoin="round"></path>
<path d="M443.472 384.971C442.676 408.015 445.911 443.042 447.015 466.072C447.05 466.797 446.83 467.793 446.105 467.766C452.367 468.873 458.884 468.508 464.983 466.708C465.868 466.447 466.817 466.101 467.303 465.317C467.649 464.759 467.697 464.072 467.736 463.417C468.789 445.696 473.949 415.509 473.776 397.757C473.715 391.503 473.458 385.055 470.852 379.37C468.246 373.684 462.718 368.896 456.465 369.028C452.186 369.119 448.152 371.522 445.513 374.892C442.874 378.262 441.527 382.505 443.472 384.971Z" fill="white" stroke="#010101" stroke-width="1.5" stroke-linecap="round" stroke-linejoin="round"></path>
<path d="M445.154 464.503C439.63 470.035 434.098 473.887 426.834 476.778C425.35 477.369 423.812 477.914 422.563 478.911C421.314 479.908 420.389 481.48 420.636 483.058C426.313 483.348 456.933 483.996 470.486 483.058C470.022 477.237 469.558 469.067 469.094 463.246C460.731 463.896 452.324 463.972 445.154 464.503Z" fill="#010101" stroke="#010101" stroke-width="1.5" stroke-linecap="round" stroke-linejoin="round"></path>
<path d="M524.651 461.509C523.724 464.097 522.797 466.685 521.87 469.273C521.572 470.105 521.263 470.956 520.695 471.633C519.977 472.488 518.925 472.976 517.908 473.437C515.139 474.693 512.369 475.948 509.6 477.204C508.828 477.554 508.009 477.945 507.577 478.674C506.825 479.943 507.671 481.674 508.96 482.392C510.249 483.11 511.806 483.088 513.28 483.036C518.282 482.861 523.28 482.557 528.267 482.126C530.504 481.932 532.762 481.708 534.89 480.994C541.879 478.649 546.158 471.601 552.511 467.861C550.683 462.867 548.446 458.024 545.829 453.395C538.613 456.87 531.006 459.532 524.651 461.509Z" fill="#010101" stroke="#010101" stroke-width="1.5" stroke-linecap="round" stroke-linejoin="round"></path>
<path d="M424.356 223.54C424.356 276.653 427.051 339.27 423.788 396.959C455.895 398.006 480.362 395.82 513.377 390.843C514.427 369.063 514.67 347.243 514.107 325.445C516.166 337.074 522.242 347.568 525.77 358.839C527.597 364.676 528.736 370.706 530.438 376.581C531.987 381.925 533.997 387.122 536.426 392.001C547.971 390.916 559.436 388.985 570.92 384.867C550.416 328.096 531.443 270.772 514.128 212.836C491.356 220.689 466.998 223.911 442.967 222.248C435.723 221.747 428.234 220.836 424.357 223.54H424.356Z" fill="#010101" stroke="#010101" stroke-width="1.5" stroke-linecap="round" stroke-linejoin="round"></path>
<path d="M414.658 109.724C413.576 105.029 416.373 100.394 417.139 95.637C418.186 89.134 415.412 82.259 417.449 75.995C418.175 73.763 419.48 71.748 420.15 69.498C421.222 65.897 420.586 62.015 421.143 58.299C422.167 51.468 427.233 45.747 433.269 42.388C439.305 39.029 446.246 37.709 453.096 36.814C456.006 36.434 458.972 36.123 461.862 36.633C466.447 37.441 470.494 40.292 473.465 43.877C476.435 47.462 478.429 51.752 480.077 56.106C481.456 59.75 482.722 63.641 485.582 66.286C488.825 69.285 493.676 70.233 496.571 73.57C499.472 76.914 499.681 81.785 501.655 85.747C503.591 89.632 507.136 92.474 509.43 96.16C511.168 98.953 512.151 102.211 512.246 105.498C512.329 108.36 511.43 111.655 508.815 112.822C507.751 113.297 506.553 113.343 505.39 113.416C497.672 113.902 490.055 115.941 483.127 119.376C481.992 119.939 480.835 120.55 479.571 120.64C477.47 120.789 475.585 119.491 473.672 118.611C465.867 115.025 456.829 118.268 448.257 118.814C440.415 119.313 432.579 117.477 424.728 117.792C421.89 117.906 418.87 118.265 416.361 116.932C413.852 115.599 412.557 111.691 414.659 109.723L414.658 109.724Z" fill="#010101" stroke="#010101" stroke-width="1.5" stroke-linecap="round" stroke-linejoin="round"></path>
<path d="M294.381 124.238C313.354 139.007 334.231 152.583 354.905 164.859C370.072 151.877 384.264 138.894 399.431 125.912C408.306 118.315 417.612 110.489 428.932 107.601C438.736 105.1 449.082 106.568 459.156 105.626C466.673 104.924 474.021 102.879 481.546 102.275C489.071 101.671 497.151 102.71 503.038 107.436C506.593 110.29 509.06 114.247 511.457 118.125C520.611 132.931 529.764 147.737 538.918 162.544C543.651 170.2 548.515 179.635 544.562 187.721C542.447 192.047 538.198 194.895 533.95 197.163C527.774 200.461 521.184 202.982 514.384 204.648C514.95 209.714 515.516 214.78 516.082 219.846C485.704 226.129 454.543 228.616 423.552 227.231C423.619 221.991 417.738 178.983 413.818 162.981C411.197 166.031 408.101 168.629 405.019 171.212C393.952 180.488 382.885 189.764 371.819 199.041C369.335 201.123 366.787 203.243 363.75 204.373C359.396 205.992 354.526 205.391 350.047 204.159C337.005 200.572 325.952 192.061 315.484 183.496C302.325 172.729 289.49 161.566 277.004 150.027C282.32 141.878 287.636 133.728 294.383 124.238H294.381Z" fill="#7B5FF1" stroke="#010101" stroke-width="1.5" stroke-linecap="round" stroke-linejoin="round"></path>
<path d="M432.024 49.654C428.439 57.246 426.501 65.611 426.383 74.006C426.336 77.36 426.601 80.817 428.077 83.829C430.58 88.935 436.697 91.989 442.283 90.92C442.542 95.492 443.4 100.031 444.829 104.382C442.081 105.245 439.261 105.879 436.408 106.274C442.578 117.085 450.995 126.608 460.966 134.059C467.02 123.988 472.274 113.437 476.661 102.537C473.885 102.884 471.11 103.23 468.864 103.557C468.455 99.502 466.591 95.609 463.689 92.748C461.838 90.924 459.596 89.518 457.843 87.6C455.597 85.143 454.251 81.88 454.112 78.554C457.002 78.736 460.083 77.349 461.385 74.762C462.687 72.175 461.678 68.512 459.009 67.388C456.34 66.264 452.748 68.646 453.153 71.514C443.172 69.275 434.822 60.948 432.024 49.654Z" fill="white" stroke="#010101" stroke-width="1.5" stroke-linecap="round" stroke-linejoin="round"></path>
<path d="M432.379 65.46C431.611 68.731 430.556 71.934 429.228 75.02C430.658 75.393 432.088 75.766 433.518 76.139" fill="white"></path>
<path d="M432.379 65.46C431.611 68.731 430.556 71.934 429.228 75.02C430.658 75.393 432.088 75.766 433.518 76.139" stroke="#010101" stroke-width="1.5" stroke-linecap="round" stroke-linejoin="round"></path>
<path d="M437.464 165.648C423.69 166.75 402.66 170.231 389.308 173.789C398.565 190.933 405.936 209.094 411.245 227.84C424.728 227.193 445.477 223.535 458.269 219.224C455.344 213.493 442.747 178.385 437.464 165.648Z" fill="white" stroke="#010101" stroke-width="1.5" stroke-linecap="round" stroke-linejoin="round"></path>
<path d="M454.756 224.285C451.25 211.825 447.431 199.266 441.05 188.004C437.628 181.965 415.308 173.702 412.194 174.528C402.717 177.042 397.355 178.395 388.255 182.045C397.203 199.43 402.574 213.726 406.99 232.773C415.217 233.421 445.605 227.564 454.755 224.285H454.756Z" fill="white" stroke="#010101" stroke-width="1.5" stroke-linecap="round" stroke-linejoin="round"></path>
<path d="M411.806 174.703C421.923 180.727 419.109 185.321 416.696 187.973C424.961 187.423 432.139 188.129 440.132 187.873" stroke="#010101" stroke-width="1.5" stroke-linecap="round" stroke-linejoin="round"></path>
<path d="M469.288 207.725C455.298 211.51 446.431 215.317 437.198 216.238C434.557 216.502 434.854 214.047 436.327 213.32C439.447 211.781 442.44 210.5 445.081 209.179C441.33 211.221 437.555 213.054 433.253 213.565C432.558 213.648 431.831 213.684 431.192 213.461C430.554 213.237 430.029 212.691 430.087 212.074C430.162 211.28 431.079 210.76 431.888 210.381C435.906 208.502 439.841 206.961 443.818 205.237C441.156 206.551 438.576 207.529 435.828 208.684C433.785 209.543 431.684 210.366 429.471 210.642C428.843 210.72 428.192 210.752 427.602 210.578C427.012 210.404 426.493 209.986 426.397 209.44C426.218 208.426 427.433 207.633 428.483 207.136C433.142 204.928 437.829 203.249 442.495 201.619C438.62 203.414 434.681 204.605 430.509 205.678C429.638 205.902 427.494 206.377 427.04 205.712C426.769 205.315 426.887 204.77 427.192 204.369C427.497 203.968 427.957 203.68 428.411 203.41C431.594 201.515 434.275 200.119 437.687 198.587C439.237 197.892 444.206 196.204 448.739 195.342L447.922 192.033C447.922 192.033 462.926 192.813 463.983 192.897" fill="white"></path>
<path d="M469.288 207.725C455.298 211.51 446.431 215.317 437.198 216.238C434.557 216.502 434.854 214.047 436.327 213.32C439.447 211.781 442.44 210.5 445.081 209.179C441.33 211.221 437.555 213.054 433.253 213.565C432.558 213.648 431.831 213.684 431.192 213.461C430.554 213.237 430.029 212.691 430.087 212.074C430.162 211.28 431.079 210.76 431.888 210.381C435.906 208.502 439.841 206.961 443.818 205.237C441.156 206.551 438.576 207.529 435.828 208.684C433.785 209.543 431.684 210.366 429.471 210.642C428.843 210.72 428.192 210.752 427.602 210.578C427.012 210.404 426.493 209.986 426.397 209.44C426.218 208.426 427.433 207.633 428.483 207.136C433.142 204.928 437.829 203.249 442.495 201.619C438.62 203.414 434.681 204.605 430.509 205.678C429.638 205.902 427.494 206.377 427.04 205.712C426.769 205.315 426.887 204.77 427.192 204.369C427.497 203.968 427.957 203.68 428.411 203.41C431.594 201.515 434.275 200.119 437.687 198.587C439.237 197.892 444.206 196.204 448.739 195.342L447.922 192.033C447.922 192.033 462.926 192.813 463.983 192.897" stroke="#010101" stroke-width="1.5" stroke-linecap="round" stroke-linejoin="round"></path>
<path d="M491.651 144.614C497.098 154.05 502.191 163.69 507.025 173.402C493.345 177.391 476.608 183.643 462.928 187.632C463.353 196.557 467.404 206.53 471.083 214.672C485.992 212.845 500.685 209.811 514.756 204.555" fill="#7B5FF1"></path>
<path d="M491.651 144.614C497.098 154.05 502.191 163.69 507.025 173.402C493.345 177.391 476.608 183.643 462.928 187.632C463.353 196.557 467.404 206.53 471.083 214.672C485.992 212.845 500.685 209.811 514.756 204.555" stroke="#010101" stroke-width="1.5" stroke-linecap="round" stroke-linejoin="round"></path>
<path d="M507.232 173.241C510.281 175.251 513.329 177.262 516.378 179.272" stroke="#010101" stroke-width="1.5" stroke-linecap="round" stroke-linejoin="round"></path>
<path d="M153.787 215.176C151.01 216.367 148.474 218.33 147.088 221.015C145.701 223.7 145.633 227.153 147.347 229.642C148.848 231.821 151.447 232.996 154.03 233.567C157.809 234.403 162.39 233.843 164.545 230.628C166.304 228.004 165.858 224.439 164.565 221.558C163.535 219.262 161.973 217.148 159.845 215.804C157.717 214.46 155.35 214.506 153.787 215.177V215.176Z" fill="white" stroke="#010101" stroke-width="1.5" stroke-linecap="round" stroke-linejoin="round"></path>
<path d="M162.219 218.193C171.606 207.548 181.049 198.006 190.436 187.361" stroke="#010101" stroke-width="1.5" stroke-linecap="round" stroke-linejoin="round"></path>
<path d="M190.121 186.586C192.482 193.757 204.422 191.642 205.809 184.791C206.519 181.282 205.036 177.16 201.016 176.009C190.58 173.022 188.719 182.327 190.121 186.586Z" fill="#7B5FF1" stroke="#010101" stroke-width="1.5" stroke-linecap="round" stroke-linejoin="round"></path>
<path d="M205.809 185.846C217.17 191.495 228.681 196.84 240.327 201.875" stroke="#010101" stroke-width="1.5" stroke-linecap="round" stroke-linejoin="round"></path>
<path d="M240.597 202.511C239.858 203.84 239.538 205.374 239.963 206.834C241.011 210.426 244.983 212.987 248.64 212.198C252.297 211.409 254.517 206.757 253.302 203.219C252.087 199.681 244.628 195.262 240.596 202.512L240.597 202.511Z" fill="#010101" stroke="#010101" stroke-width="1.5" stroke-linecap="round" stroke-linejoin="round"></path>
<path d="M253.303 203.218C259.551 198.29 265.8 193.362 272.048 188.435" stroke="#010101" stroke-width="1.5" stroke-linecap="round" stroke-linejoin="round"></path>
<path d="M278.043 177.048C271.172 174.565 267.853 182.88 271.251 186.649C272.962 188.546 275.487 189.877 278.003 189.437C280.519 188.997 282.685 186.665 282.573 184.113C282.452 181.344 280.872 178.071 278.042 177.049L278.043 177.048Z" fill="white" stroke="#010101" stroke-width="1.5" stroke-linecap="round" stroke-linejoin="round"></path>
<path d="M236.712 224.362C249.466 224.167 274.925 223.928 287.679 223.733Z" fill="white"></path>
<path d="M236.712 224.362C249.466 224.167 274.925 223.928 287.679 223.733" stroke="#010101" stroke-width="1.5" stroke-linecap="round" stroke-linejoin="round"></path>
<path d="M236.712 239.763C243.371 239.912 262.736 240.019 269.395 240.169Z" fill="white"></path>
<path d="M236.712 239.763C243.371 239.912 262.736 240.019 269.395 240.169" stroke="#010101" stroke-width="1.5" stroke-linecap="round" stroke-linejoin="round"></path>
<path d="M226.648 221.456C223.437 221.819 220.486 221.322 217.339 221.678C217.411 224.428 217.517 229.532 217.517 229.532C217.517 229.532 223.991 229.297 226.959 228.897C226.959 226.562 226.925 225.322 226.648 221.456Z" fill="white" stroke="#010101" stroke-width="1.5" stroke-linecap="round" stroke-linejoin="round"></path>
<path d="M227.497 237.017C224.286 237.38 221.335 236.883 218.188 237.239C218.26 239.989 218.366 245.093 218.366 245.093C218.366 245.093 224.84 244.858 227.808 244.458C227.808 242.123 227.774 240.883 227.497 237.017Z" fill="white" stroke="#010101" stroke-width="1.5" stroke-linecap="round" stroke-linejoin="round"></path>
<path d="M140.395 77.631L47.3789 78.094C47.3789 78.094 47.1909 59.553 46.3879 47.183C79.5829 47.843 140.217 46.183 140.217 46.183L140.395 77.631Z" fill="#7B5FF1" stroke="#010101" stroke-width="1.5" stroke-linecap="round" stroke-linejoin="round"></path>
<path d="M61.332 69.132C64.005 63.968 68.729 59.901 74.233 58.026C79.738 56.151 85.962 56.487 91.232 58.946C94.653 60.542 97.621 62.957 100.9 64.828C103.886 66.532 107.348 67.803 110.723 67.148C114.858 66.346 117.897 62.894 120.434 59.533" stroke="#010101" stroke-width="1.5" stroke-linecap="round" stroke-linejoin="round"></path>
<path d="M122.058 55.105C120.969 55.046 119.851 55.483 119.134 56.305C118.417 57.127 118.137 58.325 118.471 59.363C118.965 60.898 120.646 61.797 122.257 61.884C123.131 61.931 124.08 61.752 124.679 61.113C125.328 60.421 125.405 59.368 125.277 58.429C125.064 56.861 123.996 55.21 122.058 55.105Z" fill="white" stroke="#010101" stroke-width="1.5" stroke-linecap="round" stroke-linejoin="round"></path>
</g>
<defs>
<clipPath id="clip0_35_2378">
<rect width="580.685" height="486.558" fill="white"></rect>
</clipPath>
</defs>
</svg>