<svg width="228" height="58" viewBox="0 0 228 58" fill="none" xmlns="http://www.w3.org/2000/svg">
<path d="M145.233 1C139.073 1.28806 132.797 1.13872 126.753 1.86417C68.6353 8.8399 53.437 13.0758 5.96276 34.5309C-1.91959 38.0932 0.573434 45.8875 6.59251 49.3978C17.3736 55.6855 41.2506 56.2163 55.1406 56.6839C97.7937 58.12 139.613 54.8054 177.935 43.8007C196.705 38.4106 213.139 32.799 224.043 22.4621C226.328 20.2967 228.152 16.1003 226.122 13.5962C216.522 1.75354 177.73 3.16661 161.118 3.39992C148.019 3.58388 134.892 3.84712 121.877 4.69289C121.185 4.73785 53.0017 8.15059 37.4397 14.6728C31.3555 17.2228 26.1387 20.3688 20.7449 23.3663C9.56164 29.5812 -0.0706229 35.5732 2.02302 44.837C4.59303 56.2088 30.9079 55.8006 45.9769 55.4319C76.3833 54.688 92.0252 54.7769 118.269 50.5635C123.999 49.6436 129.323 48.0284 135.056 47.1136C157.127 43.5913 166.382 44.0888 183.207 39.3147C199.623 34.6565 215.57 26.8381 214.783 15.8336C214.053 5.63119 174.42 4.4619 164.294 3.95362C115.125 1.48557 79.2364 5.36329 36.67 18.708C21.737 23.3896 0.445579 32.7228 3.40145 43.6766C6.54237 55.316 33.3627 55.9982 49.6639 56.6522C57.8074 56.9789 66.0026 57.091 74.1546 56.8398C120.485 55.4119 157.196 55.1018 196.909 41.4755C206.805 38.0799 219.958 33.6075 220.116 26.1064C220.488 8.39084 186.175 7.0768 161.641 6.06773C115.861 4.18479 64.7666 3.1052 23.5247 16.554" stroke="#FFC933" stroke-width="1.6"/>
<path d="M145.233 1C139.073 1.28806 132.797 1.13872 126.753 1.86417C68.6353 8.8399 53.437 13.0758 5.96276 34.5309C-1.91959 38.0932 0.573434 45.8875 6.59251 49.3978C17.3736 55.6855 41.2506 56.2163 55.1406 56.6839C97.7937 58.12 139.613 54.8054 177.935 43.8007C196.705 38.4106 213.139 32.799 224.043 22.4621C226.328 20.2967 228.152 16.1003 226.122 13.5962C216.522 1.75354 177.73 3.16661 161.118 3.39992C148.019 3.58388 134.892 3.84712 121.877 4.69289C121.185 4.73785 53.0017 8.15059 37.4397 14.6728C31.3555 17.2228 26.1387 20.3688 20.7449 23.3663C9.56164 29.5812 -0.0706229 35.5732 2.02302 44.837C4.59303 56.2088 30.9079 55.8006 45.9769 55.4319C76.3833 54.688 92.0252 54.7769 118.269 50.5635C123.999 49.6436 129.323 48.0284 135.056 47.1136C157.127 43.5913 166.382 44.0888 183.207 39.3147C199.623 34.6565 215.57 26.8381 214.783 15.8336C214.053 5.63119 174.42 4.4619 164.294 3.95362C115.125 1.48557 79.2364 5.36329 36.67 18.708C21.737 23.3896 0.445579 32.7228 3.40145 43.6766C6.54237 55.316 33.3627 55.9982 49.6639 56.6522C57.8074 56.9789 66.0026 57.091 74.1546 56.8398C120.485 55.4119 157.196 55.1018 196.909 41.4755C206.805 38.0799 219.958 33.6075 220.116 26.1064C220.488 8.39084 186.175 7.0768 161.641 6.06773C115.861 4.18479 64.7666 3.1052 23.5247 16.554" stroke="url(#paint0_linear_41_613)" stroke-width="1.6"/>
<defs>
<linearGradient id="paint0_linear_41_613" x1="227" y1="1" x2="205.916" y2="100.445" gradientUnits="userSpaceOnUse">
<stop stop-color="#FFD439"/>
<stop offset="1" stop-color="#FF7A00"/>
</linearGradient>
</defs>
</svg>
