<svg width="38" height="38" viewBox="0 0 38 38" fill="none" xmlns="http://www.w3.org/2000/svg">
<path fill-rule="evenodd" clip-rule="evenodd" d="M34.8917 10.6951C34.8917 10.6951 31.1713 3.38206 24.4901 1.39579C17.8091 -0.590483 10.6976 3.50216 10.6976 3.50216C10.6976 3.50216 10.7167 3.53986 10.7548 3.61048C10.7387 3.58069 10.7255 3.55701 10.7158 3.53949C10.7025 3.51558 10.6953 3.50342 10.6953 3.50342C10.6953 3.50342 3.38228 7.22392 1.39593 13.9049C-0.590314 20.586 3.50233 27.6975 3.50233 27.6975C3.50233 27.6975 10.8154 23.9769 12.8016 17.2959C14.6173 11.1893 11.3542 4.72304 10.7796 3.65632C11.3593 4.72028 14.9927 10.986 21.0992 12.8014C27.7802 14.7877 34.8917 10.6951 34.8917 10.6951ZM13.9051 36.9991C7.22409 35.0128 3.50359 27.6998 3.50359 27.6998C3.50359 27.6998 10.6151 23.6071 17.2961 25.5935C23.4028 27.4089 27.0361 33.6746 27.6157 34.7387C27.0412 33.6718 23.7781 27.2056 25.5936 21.099C27.5799 14.418 34.8929 10.6975 34.8929 10.6975C34.8929 10.6975 38.9857 17.8089 36.9992 24.4899C35.0129 31.1709 27.7 34.8915 27.7 34.8915C27.7 34.8915 27.6788 34.8548 27.6405 34.7844C27.6785 34.855 27.6976 34.8928 27.6976 34.8928C27.6976 34.8928 20.5862 38.9854 13.9051 36.9991Z" fill="#F2C94C"/>
</svg>
