<svg id="Layer_2" data-name="Layer 2" xmlns="http://www.w3.org/2000/svg" viewBox="0 0 991.824 939.027" style="width: 100%; height: 100%;">
  <g id="Layer_2-2" data-name="Layer 2">
    <g>
      <g>
        <g>
          <rect x="177.403" y="627.099" width="80.326" height="23.372" fill="#f4f4f4"></rect>
          <rect x="188.19" y="627.099" width="10.525" height="23.372" fill="#292a2e" opacity=".05"></rect>
          <rect x="203.701" y="632.179" width="43.764" height="13.85" fill="#C9CBE9"></rect>
        </g>
        <g>
          <rect x="239.08" y="612.872" width="81.445" height="23.372" transform="translate(273.373 -59.782) rotate(23.594)" fill="#f4f4f4"></rect>
          <rect x="239.08" y="612.872" width="81.445" height="23.372" transform="translate(273.373 -59.782) rotate(23.594)" fill="#292a2e" opacity=".05"></rect>
          <rect x="296.872" y="622.658" width="10.672" height="23.372" transform="translate(279.163 -67.932) rotate(23.594)" fill="#C9CBE9"></rect>
          <rect x="250.039" y="614.671" width="44.373" height="13.85" transform="translate(271.554 -56.997) rotate(23.594)" fill="#C9CBE9"></rect>
        </g>
        <g>
          <g>
            <rect x="301.754" y="923.175" width="20.186" height="13.481" fill="#292a2e" opacity=".05"></rect>
            <rect x="95.374" y="923.175" width="20.186" height="13.481" fill="#292a2e" opacity=".05"></rect>
          </g>
          <rect x="76.87" y="651.567" width="263.574" height="271.152" fill="#f4f4f4"></rect>
          <rect x="76.87" y="651.567" width="263.574" height="271.152" fill="#292a2e" opacity=".03"></rect>
          <rect x="125.714" y="651.567" width="263.574" height="271.152" fill="#f4f4f4"></rect>
          <g>
            <rect x="350.598" y="923.175" width="20.186" height="13.481" fill="#292a2e" opacity=".05"></rect>
            <rect x="144.218" y="923.175" width="20.186" height="13.481" fill="#292a2e" opacity=".05"></rect>
          </g>
          <rect x="135.609" y="664.266" width="243.786" height="52.094" fill="#C9CBE9" opacity=".7"></rect>
          <rect x="135.609" y="729.111" width="243.786" height="52.094" fill="#C9CBE9" opacity=".7"></rect>
          <rect x="135.609" y="793.954" width="243.786" height="52.094" fill="#C9CBE9" opacity=".7"></rect>
          <circle cx="257.502" cy="690.313" r="7.289" fill="#292a2e" opacity=".05"></circle>
          <circle cx="257.502" cy="755.158" r="7.289" fill="#292a2e" opacity=".05"></circle>
          <circle cx="257.502" cy="820.002" r="7.289" fill="#292a2e" opacity=".05"></circle>
          <g>
            <rect x="135.609" y="860.26" width="243.786" height="52.094" fill="#C9CBE9" opacity=".7"></rect>
            <circle cx="257.502" cy="886.307" r="7.289" fill="#292a2e" opacity=".05"></circle>
          </g>
        </g>
      </g>
      <g>
        <g>
          <path d="m.702,938.524h990.419c.388,0,.702-.314.702-.702s-.314-.702-.702-.702H.702c-.388,0-.702.314-.702.702,0,.388.314.702.702.702Z" fill="#292a2e"></path>
          <g fill="none" opacity=".65">
            <path d="m.702,938.524h990.419c.388,0,.702-.314.702-.702s-.314-.702-.702-.702H.702c-.388,0-.702.314-.702.702,0,.388.314.702.702.702Z" fill="#292a2e"></path>
          </g>
        </g>
        <g>
          <g>
            <polygon points="924.101 938.116 926.065 937.738 895.369 632.707 893.405 633.085 924.101 938.116" fill="#494949"></polygon>
            <polygon points="809.803 938.116 811.767 937.738 781.072 632.707 779.108 633.085 809.803 938.116" fill="#494949"></polygon>
            <g>
              <polygon points="557.155 938.116 555.191 937.738 585.887 632.707 587.851 633.085 557.155 938.116" fill="#494949"></polygon>
              <polygon points="671.453 938.116 669.489 937.738 700.184 632.707 702.148 633.085 671.453 938.116" fill="#494949"></polygon>
            </g>
            <rect x="636.434" y="564.744" width="135.496" height="2" transform="translate(50.216 1188.854) rotate(-82.395)" fill="#494949"></rect>
            <rect x="842.258" y="564.744" width="135.496" height="2" transform="translate(228.799 1392.867) rotate(-82.395)" fill="#494949"></rect>
            <g>
              <rect x="684.565" y="623.061" width="220.99" height="19.671" rx="9.835" ry="9.835" transform="translate(1590.12 1265.792) rotate(-180)" fill="#292a2e"></rect>
              <rect x="684.565" y="623.061" width="220.99" height="19.671" rx="9.835" ry="9.835" transform="translate(1590.12 1265.792) rotate(-180)" fill="#C9CBE9" opacity=".8"></rect>
              <path d="m683.565,632.896c0-5.975,4.861-10.835,10.835-10.835h201.32c5.975,0,10.835,4.86,10.835,10.835,0,5.975-4.86,10.835-10.835,10.835h-201.32c-5.975,0-10.835-4.861-10.835-10.835Zm10.835-8.835c-4.872,0-8.835,3.963-8.835,8.835,0,4.872,3.963,8.835,8.835,8.835h201.32c4.872,0,8.835-3.963,8.835-8.835,0-4.872-3.963-8.835-8.835-8.835h-201.32Z" fill="#292a2e"></path>
            </g>
            <g>
              <rect x="574.07" y="623.061" width="220.99" height="19.671" rx="9.835" ry="9.835" transform="translate(1369.13 1265.792) rotate(-180)" fill="#C9CBE9"></rect>
              <path d="m573.069,632.896c0-5.975,4.861-10.835,10.836-10.835h201.319c5.975,0,10.835,4.86,10.835,10.835,0,5.975-4.861,10.835-10.835,10.835h-201.319c-5.975,0-10.836-4.861-10.836-10.835Zm10.836-8.835c-4.872,0-8.836,3.963-8.836,8.835,0,4.872,3.964,8.835,8.836,8.835h201.319c4.872,0,8.835-3.963,8.835-8.835,0-4.872-3.963-8.835-8.835-8.835h-201.319Z" fill="#292a2e"></path>
            </g>
            <g>
              <path d="m723.189,498.591h195.247c6.603,0,12.182-4.899,13.035-11.447l12.915-99.18c1.024-7.867-5.101-14.842-13.035-14.842h-195.247c-6.603,0-12.182,4.899-13.035,11.447l-12.915,99.18c-1.024,7.867,5.101,14.842,13.035,14.842Z" fill="#292a2e"></path>
              <path d="m723.189,498.591h195.247c6.603,0,12.182-4.899,13.035-11.447l12.915-99.18c1.024-7.867-5.101-14.842-13.035-14.842h-195.247c-6.603,0-12.182,4.899-13.035,11.447l-12.915,99.18c-1.024,7.867,5.101,14.842,13.035,14.842Z" fill="#C9CBE9" opacity=".8"></path>
              <path d="m712.561,494.78c-2.685-3.058-3.924-7.125-3.398-11.16l12.915-99.18c.915-7.023,6.944-12.319,14.026-12.319h195.247c4.069,0,7.943,1.753,10.628,4.811,2.685,3.058,3.923,7.125,3.398,11.16l-12.915,99.18c-.915,7.022-6.944,12.318-14.026,12.318h-195.247c-4.069,0-7.943-1.753-10.628-4.811Zm23.543-120.658c-6.081,0-11.258,4.547-12.043,10.577l-12.915,99.18c-.451,3.464.612,6.957,2.918,9.582,2.305,2.625,5.631,4.131,9.125,4.131h195.247c6.081,0,11.258-4.547,12.043-10.576l12.915-99.18c.451-3.464-.612-6.957-2.917-9.582-2.305-2.625-5.631-4.131-9.125-4.131h-195.247Z" fill="#292a2e"></path>
            </g>
            <g>
              <path d="m712.148,498.591h195.247c6.603,0,12.182-4.899,13.035-11.447l12.915-99.18c1.024-7.867-5.101-14.842-13.035-14.842h-195.247c-6.603,0-12.182,4.899-13.035,11.447l-12.915,99.18c-1.024,7.867,5.101,14.842,13.035,14.842Z" fill="#C9CBE9"></path>
              <path d="m701.52,494.78c-2.685-3.058-3.924-7.125-3.398-11.16l12.915-99.18c.915-7.023,6.944-12.319,14.026-12.319h195.247c4.069,0,7.943,1.753,10.628,4.811,2.685,3.058,3.924,7.125,3.398,11.16l-12.915,99.18c-.915,7.022-6.944,12.318-14.026,12.318h-195.247c-4.069,0-7.943-1.753-10.628-4.811Zm23.543-120.658c-6.081,0-11.258,4.547-12.043,10.577l-12.915,99.18c-.451,3.464.612,6.957,2.918,9.582,2.305,2.625,5.631,4.131,9.125,4.131h195.247c6.081,0,11.258-4.547,12.043-10.576l12.915-99.18c.451-3.465-.612-6.958-2.918-9.583-2.305-2.625-5.631-4.131-9.125-4.131h-195.247Z" fill="#292a2e"></path>
            </g>
          </g>
          <g>
            <g>
              <path d="m743.065,209.931s-10.804-12.145-9.541-34.88c.979-17.603,14.551-3.361,14.551-3.361,0,0,.828-12.668,9.571-9.648,8.743,3.02,11.192,16.991,11.192,16.991" fill="#0c0c0c"></path>
              <path d="m803.833,172.772s43.657,13.696,15.452,70.927l-4-.524-8.121-1.064" fill="#0c0c0c"></path>
              <path id="sk" d="m741.123,303.616c.2-.026,2.42,36.804,45.205,33.593,29.62-2.219,40.181-33.645,40.86-33.645-3.194-.679-7.14-1.709-8.709-2.062-5.211-1.174-11.716-5.474-13.22-14.532-.866-5.22.603-31.928.151-37.21l-45.467,10.148c.635,11.155,5.082,37.017-10.503,41.594-2.593.757-5.386,1.453-8.319,2.114Z" fill="#ff9e85"></path>
              <path id="sh" d="m759.307,290.933c.644-2.056,1.027-3.843,1.368-7.057.609-5.747.285-11.03-.297-16.413,9.185-1.223,18.003-5.086,25.129-11.009.844,3.118,5.487,16.742,4.202,19.705-2.43,5.601-13.849,14.774-30.401,14.774Z" fill="#0c0c0c" opacity=".22"></path>
              <path d="m765.309,278.202c17.905,1.937,41.178-4.971,46.252-28.787l4.578-21.489c5.074-23.816-3.322-45.787-25.746-50.565h0c-22.424-4.777-43.298,10.959-48.372,34.774l-2.027,9.514c-.417,1.958-.96,5.516-1.241,9.932-.561,8.81-1.38,22.213,2.681,32.202,3.834,9.43,12.436,13.182,23.875,14.419Z" fill="#ff9e85"></path>
              <g>
                <g>
                  <circle id="e1_eye" cx="748.641" cy="223.231" r="2.5" transform="translate(480.143 956.855) rotate(-86.502)" fill="#0a0a0a"></circle>
                  <g id="e1_n">
                    <path d="m763.746,246.135c.505.031.961-.324,1.046-.834.091-.545-.277-1.06-.822-1.151l-5.252-.876,3.899-10.36c.194-.517-.067-1.094-.585-1.288-.516-.194-1.093.067-1.288.584l-4.327,11.498c-.105.28-.079.592.07.852s.407.438.702.487l6.452,1.076c.035.006.07.01.104.012Z" fill="#0a0a0a"></path>
                  </g>
                  <g id="e1_m">
                    <path d="m764.229,257.51c9.048.553,12.074-4.75,12.211-4.999.265-.484.088-1.092-.395-1.358-.481-.265-1.086-.09-1.354.39-.127.226-3.218,5.426-13.101,3.628-.554-.103-1.065.262-1.164.805-.099.543.262,1.064.805,1.163,1.066.194,2.066.314,3,.371Z" fill="#0a0a0a"></path>
                  </g>
                  <path id="e1_eb" d="m774.21,218.218c-.285.729,2.352,2.006,6.093,3.258s7.138,2.197,7.454,1.275c.399-1.164-2.265-4.126-6.005-5.378-3.741-1.252-7.093-.301-7.542.845Z" fill="#0a0a0a"></path>
                  <circle id="e1_eye-2" data-name="e1_eye" cx="775.039" cy="226.291" r="2.5" transform="translate(501.876 986.077) rotate(-86.502)" fill="#0a0a0a"></circle>
                </g>
                <path id="e1_eb-2" data-name="e1_eb" d="m743.871,216.887c.035.782,2.963.879,6.89.505,3.927-.374,7.416-.888,7.331-1.859-.108-1.226-3.334-2.913-7.261-2.54-3.927.374-7.016,2.664-6.96,3.893Z" fill="#0a0a0a"></path>
              </g>
              <path d="m808.622,256.374c6.815,1.452,13.892-4.662,15.344-11.476,1.452-6.815-3.272-11.75-10.086-13.201l-4.484,3.818-6.632,19.611,5.859,1.248Z" fill="#ff9e85"></path>
              <path d="m806.138,244.267c-1.16-.125-2.003-1.159-1.883-2.319.775-7.497,2.734-32.775-5.621-36.289-6.545-2.753-25.025,3.62-39.767-2.365-6.449-2.618-13.146-2.23-14.426.807-.507,1.203-1.084-17.652,12.149-29.231,10.535-9.219,38.506-6.828,50.239-.771,32.487,16.772,8.163,59.367,8.163,59.367l-3.316,9.733c-.32.94-1.249,1.532-2.236,1.425l-3.301-.357Z" fill="#0c0c0c"></path>
              <ellipse cx="771.483" cy="176.018" rx="14.04" ry="9.539" transform="translate(306.903 816.591) rotate(-66.901)" fill="#0c0c0c"></ellipse>
            </g>
            <g>
              <path d="m464.375,886.277s-5.362,27.794-31.385,29.343c-26.023,1.549-20.38,22.28-20.38,22.28h99.444v-49.684s-47.68-1.938-47.68-1.938Z" fill="#2563eb"></path>
              <path d="m653.563,868.729s7.457,27.306-15.209,40.183c-22.667,12.877-8.452,28.988-8.452,28.988l89.232-43.896-21.931-44.582-43.639,19.307Z" fill="#2563eb"></path>
              <g>
                <path d="m708.831,861.016l-75.249-237.39h136.399c27.398,0,38.822-23.235,38.822-50.633s-26.935-51.416-54.334-51.416h-184.089c-16.711,0-35.449,10.22-44.621,24.19-9.171,13.969-6.693,35.618-.048,50.951l120.498,292.667" fill="#262626"></path>
                <path d="m708.831,861.016l-75.249-237.39h136.399c27.398,0,38.822-23.235,38.822-50.633s-26.935-51.416-54.334-51.416h-184.089c-16.711,0-35.449,10.22-44.621,24.19-9.171,13.969-6.693,35.618-.048,50.951l120.498,292.667" fill="#0a0a0a" opacity=".8"></path>
                <path d="m517.774,912.088l125.819-288.462,165.209-.011c38.711-3.035,56.44-24.25,55.877-51.642-.556-27.045-14.25-53.758-41.174-53.758-.411,0-103.525,0-103.525,0h-119.143c-19.92.409-35.592,22.423-42.982,40.925l-104.602,335.288" fill="#262626"></path>
                <path d="m875.949,518.546s7.337,47.846-4.293,74.447c-14.519,33.21-68.947,30.622-68.947,30.622l3.067-105.4,70.173.331Z" fill="#262626"></path>
              </g>
            </g>
            <path d="m553.12,517.605l116.701-24.182c9.883-2.048,18.035-9.001,21.616-18.438l45.901-120.953c5.787-15.248-1.883-32.299-17.131-38.085-15.25-5.787-32.299,1.884-38.085,17.131l-40.152,105.804-100.834,20.894s9.961,58.249,11.983,57.83Z" fill="#2563eb"></path>
            <path d="m688.099,384.747c1.348,15.833,10.903,114.61,12.199,134.112h175.575c1.009-17.589,4.284-92.266,8.109-126.661,3.652-32.821,4.976-51.551.77-61.751-7.418-17.989-25.981-24.462-41.971-26.627-9.764-1.322-24.449-2.269-24.449-2.269,0,0-1.243,25.153-30.891,26.553-40.36,1.904-37.664-26.553-37.864-26.553-6.538,0-42.128,4.755-51.027,10.555-12.569,8.192-16.284,19.357-16.431,29.614-.169,11.81,4.449,25.071,5.98,43.028Z" fill="#2563eb"></path>
            <path d="m695.002,465.459c.014,0,.028,0,.042-.002.275-.022.479-.264.457-.54l-4.558-54.754c-.022-.275-.255-.49-.54-.457-.275.022-.479.264-.457.54l4.558,54.754c.021.261.24.458.498.458Z" fill="#0c0c0c"></path>
            <g>
              <path d="m611.377,498.321l-38.525-118.423c-1.389-4.269-5.368-7.159-9.857-7.159h-156.952c-7.043,0-12.036,6.874-9.857,13.572l38.525,118.423c1.389,4.269,5.368,7.159,9.857,7.159h156.952c7.043,0,12.036-6.874,9.857-13.572Z" fill="#292a2e"></path>
              <path d="m611.377,498.321l-38.525-118.423c-1.389-4.269-5.368-7.159-9.857-7.159h-156.952c-7.043,0-12.036,6.874-9.857,13.572l38.525,118.423c1.389,4.269,5.368,7.159,9.857,7.159h156.952c7.043,0,12.036-6.874,9.857-13.572Z" fill="#292a2e"></path>
              <rect x="575.211" y="502.29" width="114.544" height="9.602" rx="4.74" ry="4.74" fill="#292a2e"></rect>
              <rect x="575.211" y="502.29" width="114.544" height="9.602" rx="4.74" ry="4.74" fill="#292a2e"></rect>
              <circle cx="503.782" cy="448.093" r="16.461" fill="#C9CBE9"></circle>
            </g>
            <g id="b_4_ha">
              <path d="m620.159,470.58l26.221-9.191-3.764-.26c-2.493-.273-4.522-2.384-4.379-4.888.152-2.67,2.504-4.635,5.128-4.347l46.39,4.93-1.205,14.908c-.766,9.472-7.202,17.532-16.27,20.374l-20.09,6.258c-2.137.67-4.549-.161-5.609-2.134-1.024-1.906-.599-4.059.728-5.44-.057-.047-.11-.101-.138-.175-.053-.14-.023-.287.058-.401l-3.704,1.161c-2.393.75-5.099-.37-5.973-2.72-.805-2.166.107-4.506,1.995-5.612-.045-.023-.079-.054-.114-.092l-1.522.477c-2.137.67-4.549-.161-5.609-2.134-1.241-2.307-.361-4.983,1.68-6.204-.008-.031-.014-.063-.014-.094l-10.919,3.827c-2.277.798-4.769-.401-5.567-2.677-.798-2.277.401-4.769,2.677-5.567Z" fill="#ff9e85"></path>
              <path id="b_4_ha_sh" d="m634.398,475.424c.049,0,.099-.008.149-.026l10.563-3.841c.226-.082.342-.331.26-.557-.082-.226-.332-.341-.557-.26l-10.563,3.841c-.226.082-.342.331-.26.557.064.177.231.286.409.286Z" fill="#0a0a0a" opacity=".2"></path>
              <path id="b_4_ha_sh-2" data-name="b_4_ha_sh" d="m639.737,483.104c.048,0,.097-.008.145-.025l8.326-2.954c.226-.08.345-.329.265-.555-.08-.227-.329-.346-.555-.265l-8.326,2.954c-.226.08-.345.329-.265.555.063.178.231.29.41.29Z" fill="#0a0a0a" opacity=".2"></path>
              <path id="b_4_ha_sh-3" data-name="b_4_ha_sh" d="m647.577,490.896c.051,0,.104-.009.155-.029l3.899-1.487c.224-.085.337-.336.252-.561-.085-.226-.336-.339-.562-.252l-3.899,1.487c-.224.085-.337.336-.252.561.066.174.232.28.407.28Z" fill="#0a0a0a" opacity=".2"></path>
            </g>
            <path d="m669.222,448.001l109.999-.074,41.615-101.513,62.078,26.098-51.921,120.481-.508,1.199c-5.051,11.655-16.984,19.484-30.4,18.692l-132.528-7.83,1.665-57.053Z" fill="#2563eb"></path>
            <path d="m801.91,513.438c12.51,0,24.02-7.475,29.035-19.046l.509-1.203,44.24-102.656-.918-.396-44.75,103.861c-5.093,11.753-17.114,19.139-29.911,18.387l-132.043-7.801,1.636-56.083,109.849-.074,31.998-78.053-.925-.379-31.744,77.432-110.149.075-1.693,58.023.485.028,132.528,7.83c.619.037,1.239.055,1.854.055Z" fill="#0c0c0c"></path>
          </g>
          <g>
            <rect x="11.006" y="729.252" width="419.473" height="2" transform="translate(-527.996 876.489) rotate(-84.232)" fill="#494949"></rect>
            <g>
              <g>
                <rect x="943.359" y="520.515" width="2" height="419.473" transform="translate(-68.652 98.674) rotate(-5.772)" fill="#494949"></rect>
                <rect x="769.061" y="520.515" width="2" height="419.473" transform="translate(-69.535 81.145) rotate(-5.772)" fill="#494949"></rect>
              </g>
              <rect x="-163.291" y="729.252" width="419.473" height="2" transform="translate(-684.777 703.073) rotate(-84.232)" fill="#494949"></rect>
            </g>
            <g>
              <rect x="20.317" y="513.383" width="947.391" height="16.387" rx="8.194" ry="8.194" transform="translate(988.026 1043.154) rotate(180)" fill="#292a2e"></rect>
              <rect x="20.317" y="513.383" width="947.391" height="16.387" rx="8.194" ry="8.194" transform="translate(988.026 1043.154) rotate(180)" fill="#C9CBE9" opacity=".8"></rect>
              <path d="m19.317,521.577c0-5.069,4.124-9.194,9.193-9.194h931.004c5.069,0,9.194,4.125,9.194,9.194,0,5.069-4.125,9.193-9.194,9.193H28.511c-5.069,0-9.193-4.124-9.193-9.193Zm9.193-7.194c-3.967,0-7.193,3.227-7.193,7.194,0,3.966,3.227,7.193,7.193,7.193h931.004c3.967,0,7.194-3.227,7.194-7.193s-3.227-7.194-7.194-7.194H28.511Z" fill="#292a2e"></path>
            </g>
            <g>
              <rect x="20.317" y="513.383" width="766.43" height="16.387" rx="8.194" ry="8.194" transform="translate(807.065 1043.154) rotate(180)" fill="#C9CBE9"></rect>
              <path d="m19.317,521.577c0-5.069,4.124-9.194,9.193-9.194h750.043c5.069,0,9.193,4.125,9.193,9.194,0,5.069-4.124,9.193-9.193,9.193H28.511c-5.069,0-9.193-4.124-9.193-9.193Zm9.193-7.194c-3.967,0-7.193,3.227-7.193,7.194,0,3.966,3.227,7.193,7.193,7.193h750.043c3.966,0,7.193-3.227,7.193-7.193s-3.227-7.194-7.193-7.194H28.511Z" fill="#292a2e"></path>
            </g>
          </g>
        </g>
      </g>
      <g>
        <g>
          <path d="m136.033,858.796s-18.938,27.871-2.153,47.937-2.236,30.218-2.236,30.218l-68.462-72.605,36.275-34.205,36.577,28.655Z" fill="#2563eb"></path>
          <path d="m235.414,410.676s63.924,219.862,48.857,252.001c-14.812,31.596-150.003,216.191-150.003,216.191l-48.613-42.374,120.239-194.988s-35.595-112.608-54.836-171.662c-11.599-35.6-31.118-34.466-32.972-71.862h0s117.328,12.693,117.328,12.693Z" fill="#262626"></path>
          <polygon points="164.635 658.526 180.448 640.519 176.332 746.223 158.708 762.974 164.635 658.526" fill="#0a0a0a"></polygon>
          <path d="m162.016,503.69s-7.57-44.941.526-35.315c26.33,31.304,28.95,127.618,28.95,127.618l-29.476-92.303Z" fill="#0a0a0a"></path>
          <path d="m206.248,883.943s5.381,27.891,31.494,29.445c26.114,1.554,20.451,22.358,20.451,22.358h-99.793v-49.858s47.847-1.945,47.847-1.945Z" fill="#2563eb"></path>
          <path d="m57.249,405.167s-.443-2.056-.705,9.961c-.185,8.485-3.631,38.518,8.284,85.887,22.322,88.751,89.169,400.727,89.169,400.727l65.574-.551-61.836-498.752-100.486,2.727Z" fill="#262626"></path>
        </g>
        <g>
          <path d="m56.234,405.527l-.214.012s.155-4.131.214-.012Z" fill="#333"></path>
          <g>
            <path d="m415.191,208.936c-.864-1.694-2.625-2.499-4.319-2.286,0-.076-.001-.155-.048-.222-.084-.117-.215-.15-.347-.141l2.929-2.1c1.771-1.269,2.494-3.68,1.45-5.592-1.082-1.983-3.417-2.7-5.353-1.894.007-.042-.02-.081-.027-.124l1.204-.863c1.665-1.194,2.385-3.415,1.526-5.275-1.156-2.503-4.21-3.227-6.335-1.704l-2.778,1.991c-.008-.016,0-.036-.011-.051-.012-.021-.041-.021-.057-.038,1.285-1.447,1.454-3.636.279-5.276-1.311-2.11-4.338-1.678-6.134-.391l-16.348,11.292,2.922-4.919c1.172-1.973.745-4.618-1.164-5.891-2.036-1.358-4.766-.719-6,1.357l-15.955,26.86c-3.892,6.552-1.865,15.011,4.573,19.088h0c7.346,4.652,16.78,4.381,23.848-.685l24.688-17.696c1.629-1.167,2.366-3.656,1.455-5.441Z" fill="#ff9e85"></path>
            <g fill="none" opacity=".25">
              <path d="m386.912,201.886c.125.171.364.212.539.091l15.533-10.759c.177-.123.222-.366.099-.544-.102-.176-.367-.222-.544-.099l-15.533,10.759c-.177.123-.222.366-.099.544l.005.007Z" fill="#0c0c0c"></path>
            </g>
            <g fill="none" opacity=".25">
              <path d="m391.468,208.868c.125.171.364.212.539.091l17.335-12.007c.177-.123.222-.366.099-.544-.113-.162-.367-.221-.544-.099l-17.335,12.007c-.177.123-.222.366-.099.544l.005.007Z" fill="#0c0c0c"></path>
            </g>
            <g fill="none" opacity=".25">
              <path d="m396.359,216.458c.125.171.364.212.539.091l13.828-9.577c.177-.123.222-.366.099-.544-.128-.177-.367-.221-.544-.099l-13.828,9.577c-.177.123-.222.366-.099.544l.005.007Z" fill="#0c0c0c"></path>
            </g>
          </g>
          <path d="m351.212,207.552l-46.855,79.8-57.173-74.99-47.48,42.806,81.084,105.012.531.748c2.828,3.883,6.566,7.195,11.105,9.582,15.841,8.331,35.435,2.242,43.766-13.598l66.628-120.659-51.607-28.7Z" fill="#2563eb"></path>
          <path d="m299.763,296.948c-.092,0-.184-.021-.271-.065-.293-.149-.409-.508-.259-.801l4.593-9.001c.149-.293.509-.408.801-.259.293.149.409.508.259.801l-4.593,9.001c-.105.206-.314.324-.53.324Z" fill="#0c0c0c"></path>
          <rect x="231.143" y="298.939" width="25.245" height="1.19" transform="translate(-69.099 525.936) rotate(-86.752)" fill="#0c0c0c"></rect>
          <g>
            <g>
              <path d="m92.77,108.609s-2.196,34.055-8.63,44.168c-18.524,29.115-24.175,52.044-6.164,69.489,18.011,17.446,134.161,19.03,143.419-20.511,7.794-33.289-8.062-37.061-11.611-64.638-1.606-12.478-6.118-38.655-6.118-38.655" fill="#0a0a0a"></path>
              <path id="sk-2" data-name="sk" d="m191.826,195.435c-.201-.026-2.426,36.894-45.316,33.675-29.693-2.224-40.28-33.728-40.96-33.728,3.201-.68,8.592-1.67,10.014-2.429,4.676-2.512,10.461-5.126,11.968-14.206.869-5.233-.605-32.006-.151-37.301l45.579,10.173c-.637,11.183-5.094,37.107,10.529,41.696,2.599.759,5.4,1.457,8.339,2.12Z" fill="#ff9e85"></path>
              <path id="sh-2" data-name="sh" d="m173.597,182.721c-.646-2.061-1.03-3.853-1.371-7.074-.61-5.761-.286-11.057.298-16.453-9.208-1.226-18.048-5.098-25.191-11.036-.846,3.126-6.181,14.664-4.892,17.634,2.436,5.615,14.563,16.929,31.156,16.929Z" fill="#0c0c0c" opacity=".22"></path>
              <path d="m167.556,171.1c-17.988,1.536-37.276-5.937-41.815-29.921l-7.974-21.631c-4.539-23.985,4.378-45.812,26.961-50.086h0c22.583-4.274,40.722,3.192,45.261,27.176,0,0,2.802,13.723,3.233,18.365,1.628,17.504,1.628,53.767-25.666,56.097Z" fill="#ff9e85"></path>
              <path id="e1_eb-3" data-name="e1_eb" d="m189.451,110.589c-.083.778-3.011.697-6.908.084-3.897-.613-7.348-1.339-7.203-2.303.182-1.217,3.505-1.705,7.402-1.092,3.897.613,6.84,2.087,6.71,3.311Z" fill="#0a0a0a"></path>
              <path d="m99.701,127.091l25.426,7.015c15.331-6.204,14.786-43.471,14.786-43.471,0,0,18.623,18.151,63.752,7.827,0,0-9.049-60.937-75.721-42.637-21.498,5.901-36.928,29.565-35.006,58.519,1.347,20.291,6.763,12.747,6.763,12.747Z" fill="#0a0a0a"></path>
              <path d="m124.648,148.232c-6.863,1.299-13.929-1.14-15.856-11.476-1.28-6.866,4.29-12.078,11.153-13.376l4.407,3.929,6.197,19.806-5.9,1.117Z" fill="#ff9e85"></path>
              <g>
                <circle id="e1_eye-3" data-name="e1_eye" cx="185.222" cy="118.013" r="2.5" fill="#0a0a0a"></circle>
                <g id="e1_n-2" data-name="e1_n">
                  <path d="m170.343,138.57c-.506,0-.939-.382-.993-.896-.058-.549.341-1.041.891-1.099l5.296-.554-3.26-10.578c-.162-.528.134-1.087.662-1.25.527-.162,1.087.133,1.25.661l3.617,11.741c.088.286.043.596-.122.846s-.433.412-.73.443l-6.506.68c-.035.004-.07.005-.104.005Z" fill="#0a0a0a"></path>
                </g>
                <g id="e1_m-2" data-name="e1_m">
                  <path d="m166.652,149.894c-9.064,0-11.762-5.478-11.883-5.734-.235-.5-.021-1.095.478-1.331.496-.235,1.09-.023,1.328.472.113.233,2.881,5.613,12.855,4.42.56-.069,1.047.326,1.112.874.065.548-.326,1.046-.874,1.112-1.076.129-2.081.187-3.017.187Z" fill="#0a0a0a"></path>
                </g>
                <path id="e1_eb-4" data-name="e1_eb" d="m159.087,110.066c.24.745-2.47,1.859-6.28,2.88s-7.259,1.757-7.518.818c-.327-1.186,2.512-2.98,6.322-4.001,3.81-1.021,7.098-.868,7.476.304Z" fill="#0a0a0a"></path>
                <circle id="e1_eye-4" data-name="e1_eye" cx="159.102" cy="119.808" r="2.5" fill="#0a0a0a"></circle>
              </g>
              <path d="m110.682,118.634l-.314,9.538c1.811-2.178,4.427-3.693,7.464-4.054.755-.1,1.504-.09,2.236-.029,4.56,3.613,1.32,10.213,5.059,10.017,2.123-.111,6.964-5.124,8.125-8.233.736-1.971-4.569-9.534-4.543-11.638" fill="#0a0a0a"></path>
            </g>
            <path d="m245.253,276.597c-1.351,15.871-7.923,114.892-9.221,134.441H56.605c-1.011-17.632-5.139-94.732-8.974-129.212-3.661-32.902-10.842-49.375-5.578-59.102,8.602-15.898,32.109-25.084,48.137-27.254,9.788-1.325,24.509-2.275,24.509-2.275,0,0,1.246,25.215,30.967,26.618,40.459,1.909,37.757-26.618,37.957-26.618,6.554,0,43.997,4.149,53.158,9.579,24.962,14.782,11.339,40.189,8.472,73.823Z" fill="#2563eb"></path>
            <path d="m356.814,287.684l-16.567,80.523c-.693,3.369-3.646,5.797-7.085,5.826l-114.078.971c-4.647.04-8.146-4.216-7.21-8.767l16.567-80.523c.693-3.369,3.646-5.797,7.085-5.826l114.078-.971c4.647-.04,8.146,4.216,7.21,8.767Z" fill="#292a2e"></path>
            <g>
              <path d="m250.439,344.881c.202,2.167-1.405,4.095-3.536,4.571l-3.512.774c.119.048.226.131.262.274.012.071-.012.155-.048.214,1.643.476,2.952,1.905,3.071,3.81.143,1.988-1.512,3.988-3.464,4.429l-29.655,6.583c-1.536.345-3.083.512-4.619.512-6.929,0-13.548-3.381-17.583-9.25-4.321-6.274-2.869-14.857,3.286-19.345l25.226-18.44c.571-.417,1.226-.679,1.881-.774l-2.321,11.274.619-.143.131-.024,19.345-3.94c2.155-.476,5.107.31,5.488,2.762.429,1.976-.583,3.917-2.333,4.75.012.012.036.024.036.048.012.024-.012.036-.012.06l3.345-.738c2.548-.571,5.071,1.298,5.155,4.048.06,2.048-1.476,3.81-3.476,4.25l-1.44.321c-.012.048,0,.095-.024.131,2.095.012,3.964,1.595,4.179,3.845Z" fill="#ff9e85"></path>
              <g fill="none" opacity=".25">
                <path d="m223.443,336.931c.047.206.251.338.46.295l18.51-3.796c.211-.043.348-.25.304-.462-.025-.202-.25-.348-.462-.304l-18.51,3.796c-.211.043-.348.25-.304.462l.002.009Z" fill="#0c0c0c"></path>
              </g>
              <g fill="none" opacity=".25">
                <path d="m224.892,345.141c.047.206.251.338.46.295l20.657-4.236c.211-.043.348-.25.304-.462-.041-.193-.25-.348-.462-.304l-20.657,4.236c-.211.043-.348.25-.304.462l.002.009Z" fill="#0c0c0c"></path>
              </g>
              <g fill="none" opacity=".25">
                <path d="m226.41,354.042c.047.206.251.338.46.295l16.478-3.379c.211-.043.348-.25.304-.462-.048-.213-.25-.348-.462-.304l-16.478,3.379c-.211.043-.348.25-.304.462l.002.009Z" fill="#0c0c0c"></path>
              </g>
            </g>
            <path id="b_4_b" d="m211.722,377.269l-160.886,29.075c-1.182.129-2.364.192-3.539.192-8.946,0-17.563-3.674-23.772-10.256-7.025-7.448-10.156-17.756-8.457-27.851l22.523-133.877c2.995-17.801,19.85-29.799,37.654-26.809,17.801,2.995,29.804,19.853,26.809,37.654l-15.359,92.16,117.953-14.813,7.073,54.526Z" fill="#2563eb"></path>
            <g id="b_4_b-2" data-name="b_4_b">
              <path d="m50.835,406.938c-.283,0-.532-.201-.585-.489-.058-.323.157-.634.48-.692l160.328-28.973-6.924-53.376-117.365,14.739c-.194.023-.373-.042-.503-.178s-.189-.324-.158-.51l9.763-58.901c.053-.323.357-.551.685-.489.324.053.543.36.489.685l-9.633,58.113,117.161-14.713c.319-.04.622.188.665.514l7.073,54.526c.041.315-.172.606-.485.663l-160.885,29.075c-.036.006-.071.009-.107.009Z" fill="#0c0c0c"></path>
            </g>
            <rect x="76.281" y="337.792" width="10.481" height="1.191" transform="translate(-52.463 17.14) rotate(-9.095)" fill="#0c0c0c"></rect>
          </g>
        </g>
      </g>
      <g id="b_1_idea">
        <path id="b_1_idea-2" data-name="b_1_idea" d="m631.92,90.887c.059-50.869-41.733-92.015-92.878-90.864-49.137,1.106-88.827,41.877-88.687,91.026.076,26.686,11.674,50.661,30.084,67.219,20.324,18.281,32.39,43.993,32.358,71.329v.099s56.36.065,56.36.065v-.097c.032-27.304,12.093-53.002,32.454-71.193,18.573-16.594,30.278-40.715,30.309-67.584Z" fill="#e7f95b"></path>
        <path d="m568.297,99.897c-.933-1.2-2.555-1.946-4.818-2.198-3.836-.43-8.216,1.744-11.979,5.977l-.365.406-.284-.454c-.527-.852-1.111-1.63-1.719-2.311-2.709-3.033-7.592-6.131-15.499-3.69-2.847.884-5.255,2.23-7.145,4.015l-.276.26-.276-.26c-.641-.584-1.33-1.095-2.052-1.533-4.444-2.709-9.4-2.06-12.774-1.038-1.93.584-3.13,2.53-2.782,4.526l22.093,126.261c.073.438.495.738.941.657.438-.073.73-.495.657-.933l-22.093-126.261c-.211-1.192.503-2.352,1.655-2.701,3.058-.924,7.526-1.525,11.46.876.633.381,1.241.835,1.809,1.354l.276.251-.227.292c-1.865,2.433-2.871,5.328-3.001,8.613-.211,5.288,2.084,10.576,5.117,11.776,1.209.487,2.539.276,3.544-.56,1.03-.844,2.603-3.074,1.59-8.516-.9-4.793-2.449-8.605-4.615-11.338l-.235-.292.276-.259c1.687-1.598,3.885-2.822,6.537-3.642,5.604-1.727,10.381-.624,13.804,3.22.738.819,1.403,1.768,1.995,2.83l.129.227-.154.211c-.3.397-.592.811-.876,1.233-3.277,4.866-5.888,11.792-3.877,15.507.795,1.46,2.165,2.198,4.079,2.198h.073c1.671-.024,3.074-1.135,3.942-3.114,1.695-3.869,1.2-10.43-1.176-15.612l-.105-.227.162-.195c3.285-3.974,7.015-6.188,10.356-6.188.284,0,.56.016.836.041,4.266.487,4.201,2.701,4.185,2.952l-18.038,127.373c-.065.438.243.852.689.916.422.057.851-.259.916-.689l18.029-127.348c.025-.138.162-1.379-.786-2.611Zm-37.745,15.101c.892,4.793-.414,6.472-1.022,6.967-.357.3-.779.454-1.208.454-.235,0-.47-.049-.706-.138-2.093-.835-4.298-5.231-4.104-10.211.081-1.898.552-4.704,2.384-7.316l.316-.454.341.446c1.849,2.498,3.195,5.945,3.999,10.251Zm21.192,5.839c-.616,1.403-1.452,2.125-2.482,2.141h-.154c-1.817,0-2.36-1.014-2.547-1.346-1.403-2.595.227-8.54,3.796-13.828l.438-.649.324.665c1.736,4.534,1.995,9.886.625,13.017Z" fill="#C9CBE9"></path>
        <path id="b_1_idea-3" data-name="b_1_idea" d="m512.778,229.73h56.36v3.294c0,15.553-12.627,28.18-28.18,28.18h0c-15.553,0-28.18-12.627-28.18-28.18v-3.294h0Z" transform="translate(.284 -.625) rotate(.066)" fill="#262626"></path>
      </g>
    </g>
  </g>
</svg>