<svg width="122" height="123" viewBox="0 0 122 123" fill="none" xmlns="http://www.w3.org/2000/svg">
<path d="M53.2763 93.8735C51.3948 98.197 45.4323 98.197 43.551 93.8735L38.6569 82.6244C34.3015 72.6143 26.462 64.6456 16.6833 60.2896L3.2122 54.289C-1.07074 52.3814 -1.07073 46.1288 3.2122 44.221L16.2625 38.4078C26.2927 33.9398 34.2728 25.6762 38.5538 15.3242L43.5114 3.33647C45.3511 -1.11215 51.4762 -1.11216 53.3159 3.33647L58.2733 15.3243C62.5544 25.6762 70.5342 33.9398 80.5645 38.4078L93.615 44.221C97.8977 46.1288 97.8977 52.3814 93.615 54.289L80.1441 60.2896C70.3653 64.6456 62.5259 72.6143 58.1702 82.6244L53.2763 93.8735ZM19.4004 49.2551C32.1473 54.9331 42.5117 64.2662 48.4136 77.1079C54.3158 64.2662 64.6801 54.9331 77.4267 49.2551C64.5279 43.5093 54.1306 33.7213 48.4136 20.6513C42.6967 33.7214 32.2993 43.5093 19.4004 49.2551ZM102.276 121.262L103.653 118.096C106.106 112.452 110.526 107.958 116.04 105.5L120.28 103.609C122.573 102.586 122.573 99.2418 120.28 98.2194L116.277 96.4342C110.621 93.9127 106.122 89.2523 103.711 83.4163L102.298 79.9954C101.312 77.6115 98.0277 77.6115 97.0423 79.9954L95.6292 83.4163C93.218 89.2523 88.7195 93.9127 83.0633 96.4342L79.06 98.2194C76.767 99.2418 76.767 102.586 79.06 103.609L83.3003 105.5C88.8148 107.958 93.2336 112.452 95.6872 118.096L97.0641 121.262C98.0712 123.579 101.269 123.579 102.276 121.262ZM96.5499 100.876L99.6867 97.7499L102.758 100.876L99.6867 103.914L96.5499 100.876Z" fill="#3970FD"/>
</svg>
